<svg width="19" height="18" viewBox="0 0 19 18" fill="none" xmlns="http://www.w3.org/2000/svg">
<path d="M4.93066 17.2241C4.69271 17.2241 4.51009 17.1466 4.38281 16.9917C4.25553 16.8368 4.19189 16.6292 4.19189 16.3691V13.9536H3.80176C2.97721 13.9536 2.28271 13.807 1.71826 13.5137C1.15381 13.2204 0.724935 12.7915 0.431641 12.2271C0.14388 11.6626 0 10.9736 0 10.1602V3.80176C0 2.98828 0.14388 2.29932 0.431641 1.73486C0.724935 1.17041 1.15381 0.741536 1.71826 0.448242C2.28271 0.149414 2.97721 0 3.80176 0H14.4932C15.3177 0 16.0122 0.149414 16.5767 0.448242C17.1411 0.741536 17.5672 1.17041 17.855 1.73486C18.1483 2.29932 18.2949 2.98828 18.2949 3.80176V10.1602C18.2949 10.9736 18.1483 11.6626 17.855 12.2271C17.5672 12.7915 17.1411 13.2204 16.5767 13.5137C16.0122 13.807 15.3177 13.9536 14.4932 13.9536H8.88184L5.88525 16.6929C5.68604 16.8755 5.51725 17.0083 5.37891 17.0913C5.24609 17.1799 5.09668 17.2241 4.93066 17.2241ZM8.87354 10.8325C9.01742 10.8325 9.13363 10.7855 9.22217 10.6914C9.31624 10.5973 9.36328 10.4811 9.36328 10.3428V3.63574C9.36328 3.49186 9.31624 3.37012 9.22217 3.27051C9.12809 3.1709 9.00635 3.12109 8.85693 3.12109C8.75732 3.12109 8.66602 3.146 8.58301 3.1958C8.50553 3.24007 8.40869 3.31478 8.29248 3.41992L6.43311 5.17139C6.41097 5.19352 6.375 5.20459 6.3252 5.20459H5.06348C4.77572 5.20459 4.5516 5.2876 4.39111 5.45361C4.23063 5.6141 4.15039 5.84928 4.15039 6.15918V7.79443C4.15039 8.10433 4.23063 8.34229 4.39111 8.5083C4.5516 8.66878 4.77572 8.74902 5.06348 8.74902H6.3252C6.36947 8.74902 6.40544 8.76286 6.43311 8.79053L8.29248 10.5586C8.39762 10.6527 8.49447 10.7218 8.58301 10.7661C8.67155 10.8104 8.76839 10.8325 8.87354 10.8325ZM10.8159 8.89844C10.91 8.97591 11.0151 9.00358 11.1313 8.98145C11.2531 8.95378 11.3527 8.89014 11.4302 8.79053C11.6073 8.56364 11.7428 8.29248 11.8369 7.97705C11.931 7.65609 11.978 7.32129 11.978 6.97266C11.978 6.63509 11.9282 6.30583 11.8286 5.98486C11.7345 5.6639 11.6017 5.38721 11.4302 5.15479C11.3527 5.05518 11.2531 4.9943 11.1313 4.97217C11.0151 4.9445 10.91 4.96663 10.8159 5.03857C10.7052 5.12158 10.6388 5.22396 10.6167 5.3457C10.6001 5.46745 10.6333 5.58643 10.7163 5.70264C10.9598 6.01807 11.0815 6.44141 11.0815 6.97266C11.0815 7.4707 10.957 7.89404 10.708 8.24268C10.542 8.49723 10.578 8.71582 10.8159 8.89844ZM12.3267 10.0356C12.4373 10.1021 12.548 10.1242 12.6587 10.1021C12.7749 10.0799 12.869 10.0218 12.9409 9.92773C13.2287 9.51823 13.4528 9.06169 13.6133 8.55811C13.7738 8.04899 13.854 7.52051 13.854 6.97266C13.854 6.43587 13.7765 5.91292 13.6216 5.40381C13.4666 4.89469 13.2397 4.43262 12.9409 4.01758C12.869 3.91243 12.7749 3.8488 12.6587 3.82666C12.5425 3.80452 12.4318 3.82943 12.3267 3.90137C12.2215 3.97331 12.1606 4.07015 12.144 4.19189C12.1274 4.31364 12.1579 4.42985 12.2354 4.54053C12.7223 5.21566 12.9658 6.02637 12.9658 6.97266C12.9658 7.4209 12.9022 7.85807 12.7749 8.28418C12.6476 8.71029 12.4678 9.07829 12.2354 9.38818C12.1579 9.50439 12.1247 9.62614 12.1357 9.75342C12.1523 9.87516 12.216 9.96924 12.3267 10.0356Z" fill="#333333"/>
</svg>
