<svg width="15" height="12" viewBox="0 0 15 12" fill="none" xmlns="http://www.w3.org/2000/svg">
    <path
        d="M12.1406 4.49414C12.3438 4.49414 12.5156 4.42383 12.6562 4.2832C12.8008 4.13867 12.873 3.9668 12.873 3.76758C12.873 3.56445 12.8008 3.39258 12.6562 3.25195C12.5156 3.11133 12.3438 3.04102 12.1406 3.04102C11.9414 3.04102 11.7695 3.11133 11.625 3.25195C11.4844 3.39258 11.4141 3.56445 11.4141 3.76758C11.4141 3.9668 11.4844 4.13867 11.625 4.2832C11.7695 4.42383 11.9414 4.49414 12.1406 4.49414ZM1.83984 11.1738C1.22656 11.1738 0.765625 11.0215 0.457031 10.7168C0.152344 10.416 0 9.96289 0 9.35742V3.22266C0 2.62109 0.152344 2.16992 0.457031 1.86914C0.765625 1.56445 1.22656 1.41211 1.83984 1.41211H3.47461C3.70508 1.41211 3.875 1.38477 3.98438 1.33008C4.09375 1.27148 4.21289 1.16992 4.3418 1.02539L4.81055 0.498047C4.95898 0.337891 5.11914 0.214844 5.29102 0.128906C5.4668 0.0429687 5.70508 0 6.00586 0H8.34375C8.64453 0 8.88281 0.0429687 9.05859 0.128906C9.23438 0.214844 9.39453 0.337891 9.53906 0.498047L10.0078 1.02539C10.0977 1.12305 10.1777 1.20117 10.248 1.25977C10.3223 1.31445 10.4062 1.35352 10.5 1.37695C10.5938 1.40039 10.7188 1.41211 10.875 1.41211H12.5508C13.1602 1.41211 13.6191 1.56445 13.9277 1.86914C14.2363 2.16992 14.3906 2.62109 14.3906 3.22266V9.35742C14.3906 9.96289 14.2363 10.416 13.9277 10.7168C13.6191 11.0215 13.1602 11.1738 12.5508 11.1738H1.83984ZM7.19531 9.44531C7.63672 9.44531 8.05078 9.36328 8.4375 9.19922C8.82422 9.03516 9.16406 8.80664 9.45703 8.51367C9.75 8.2207 9.97852 7.88086 10.1426 7.49414C10.3066 7.10742 10.3887 6.68945 10.3887 6.24023C10.3887 5.64648 10.2461 5.10742 9.96094 4.62305C9.67578 4.13867 9.29102 3.75391 8.80664 3.46875C8.32227 3.18359 7.78516 3.04102 7.19531 3.04102C6.75 3.04102 6.33398 3.12305 5.94727 3.28711C5.56055 3.45117 5.2207 3.67969 4.92773 3.97266C4.63867 4.26562 4.41016 4.60547 4.24219 4.99219C4.07812 5.37891 3.99609 5.79492 3.99609 6.24023C3.99609 6.68945 4.07812 7.10742 4.24219 7.49414C4.41016 7.88086 4.63867 8.2207 4.92773 8.51367C5.2207 8.80664 5.56055 9.03516 5.94727 9.19922C6.33398 9.36328 6.75 9.44531 7.19531 9.44531ZM7.19531 8.55469C6.76953 8.55469 6.38086 8.45117 6.0293 8.24414C5.68164 8.03711 5.40234 7.75977 5.19141 7.41211C4.98438 7.06055 4.88086 6.66992 4.88086 6.24023C4.88086 5.81445 4.98438 5.42773 5.19141 5.08008C5.40234 4.72852 5.68164 4.44922 6.0293 4.24219C6.38086 4.03125 6.76953 3.92578 7.19531 3.92578C7.62109 3.92578 8.00781 4.03125 8.35547 4.24219C8.70703 4.44922 8.98633 4.72852 9.19336 5.08008C9.40039 5.42773 9.50391 5.81445 9.50391 6.24023C9.50391 6.66992 9.40039 7.06055 9.19336 7.41211C8.98633 7.75977 8.70703 8.03711 8.35547 8.24414C8.00781 8.45117 7.62109 8.55469 7.19531 8.55469Z"
        fill="currentColor" />
</svg>