<svg width="11" height="14" viewBox="0 0 11 14" fill="none" xmlns="http://www.w3.org/2000/svg">
<path d="M2.60498 2.97559V1.68652C2.60498 1.12793 2.74284 0.707194 3.01855 0.424316C3.29785 0.141439 3.71501 0 4.27002 0H6.32715C6.61719 0 6.87679 0.0411784 7.10596 0.123535C7.33512 0.202311 7.5446 0.340169 7.73438 0.537109L10.4468 3.29248C10.6473 3.50016 10.7869 3.71859 10.8657 3.94775C10.9445 4.17692 10.9839 4.45622 10.9839 4.78564V9.14697C10.9839 9.70557 10.8442 10.1263 10.5649 10.4092C10.2892 10.6921 9.87386 10.8335 9.31885 10.8335H8.2124V9.96875H9.27051C9.5498 9.96875 9.76107 9.89714 9.9043 9.75391C10.0475 9.6071 10.1191 9.39941 10.1191 9.13086V4.53857H7.60547C7.29753 4.53857 7.06657 4.46338 6.9126 4.31299C6.76221 4.1626 6.68701 3.93164 6.68701 3.62012V0.864746H4.31299C4.03369 0.864746 3.82243 0.938151 3.6792 1.08496C3.53955 1.22819 3.46973 1.43408 3.46973 1.70264V2.97559H2.60498ZM7.46582 3.49121C7.46582 3.58789 7.48551 3.65771 7.5249 3.70068C7.56787 3.74007 7.6359 3.75977 7.729 3.75977H9.89355L7.46582 1.28906V3.49121ZM0 11.8271V4.3667C0 3.80811 0.137858 3.38737 0.413574 3.10449C0.692871 2.82161 1.11003 2.68018 1.66504 2.68018H3.56104C3.86182 2.68018 4.11068 2.7124 4.30762 2.77686C4.50456 2.84131 4.70508 2.97917 4.90918 3.19043L7.86865 6.20361C8.01188 6.35042 8.1193 6.49007 8.19092 6.62256C8.26611 6.75146 8.31624 6.89469 8.34131 7.05225C8.36637 7.2098 8.37891 7.40316 8.37891 7.63232V11.8271C8.37891 12.3857 8.23926 12.8065 7.95996 13.0894C7.68424 13.3722 7.26888 13.5137 6.71387 13.5137H1.66504C1.11003 13.5137 0.692871 13.3722 0.413574 13.0894C0.137858 12.8101 0 12.3893 0 11.8271ZM0.864746 11.811C0.864746 12.0796 0.93457 12.2855 1.07422 12.4287C1.21745 12.5755 1.42692 12.6489 1.70264 12.6489H6.6709C6.94661 12.6489 7.15609 12.5755 7.29932 12.4287C7.44255 12.2855 7.51416 12.0796 7.51416 11.811V7.67529H4.47949C4.14648 7.67529 3.89404 7.59115 3.72217 7.42285C3.55387 7.25456 3.46973 7.00033 3.46973 6.66016V3.54492H1.70801C1.42871 3.54492 1.21745 3.61833 1.07422 3.76514C0.93457 3.90837 0.864746 4.11247 0.864746 4.37744V11.811ZM4.58154 6.86426H7.34766L4.28076 3.74365V6.56348C4.28076 6.6709 4.30404 6.74788 4.35059 6.79443C4.39714 6.84098 4.47412 6.86426 4.58154 6.86426Z" fill="#717182"/>
</svg>
