<svg width="14" height="18" viewBox="0 0 14 18" fill="none" xmlns="http://www.w3.org/2000/svg">
<path d="M10.0356 10.0107C10.1795 10.0107 10.2985 10.0605 10.3926 10.1602C10.4922 10.2542 10.542 10.3732 10.542 10.5171C10.542 10.661 10.4922 10.7827 10.3926 10.8823C10.2985 10.9819 10.1795 11.0317 10.0356 11.0317H3.73535C3.58594 11.0317 3.46143 10.9819 3.36182 10.8823C3.26221 10.7827 3.2124 10.661 3.2124 10.5171C3.2124 10.3732 3.26221 10.2542 3.36182 10.1602C3.46143 10.0605 3.58594 10.0107 3.73535 10.0107H10.0356ZM10.0356 12.9077C10.1795 12.9077 10.2985 12.9575 10.3926 13.0571C10.4922 13.1567 10.542 13.2812 10.542 13.4307C10.542 13.569 10.4922 13.688 10.3926 13.7876C10.2985 13.8817 10.1795 13.9287 10.0356 13.9287H3.73535C3.58594 13.9287 3.46143 13.8817 3.36182 13.7876C3.26221 13.688 3.2124 13.569 3.2124 13.4307C3.2124 13.2812 3.26221 13.1567 3.36182 13.0571C3.46143 12.9575 3.58594 12.9077 3.73535 12.9077H10.0356ZM2.57324 17.7969C1.71549 17.7969 1.0708 17.5811 0.63916 17.1494C0.213053 16.7178 0 16.0675 0 15.1987V2.60645C0 1.74316 0.213053 1.09294 0.63916 0.655762C1.0708 0.218587 1.71549 0 2.57324 0H6.51611C6.82601 0 7.09717 0.0221354 7.32959 0.0664062C7.56755 0.105143 7.78613 0.182617 7.98535 0.298828C8.18457 0.409505 8.38932 0.572754 8.59961 0.788574L13.1733 5.44531C13.3947 5.6722 13.5607 5.88802 13.6714 6.09277C13.7876 6.29199 13.8651 6.51335 13.9038 6.75684C13.9425 7.00033 13.9619 7.30192 13.9619 7.66162V15.1987C13.9619 16.062 13.7461 16.7095 13.3145 17.1411C12.8883 17.5783 12.2464 17.7969 11.3887 17.7969H2.57324ZM2.63135 16.4604H11.3223C11.7539 16.4604 12.0776 16.3498 12.2935 16.1284C12.5148 15.9071 12.6255 15.5889 12.6255 15.1738V7.71973H7.89404C7.37386 7.71973 6.98372 7.58968 6.72363 7.32959C6.46354 7.0695 6.3335 6.67936 6.3335 6.15918V1.33643H2.63965C2.20801 1.33643 1.88151 1.44987 1.66016 1.67676C1.44434 1.90365 1.33643 2.22184 1.33643 2.63135V15.1738C1.33643 15.5889 1.44434 15.9071 1.66016 16.1284C1.88151 16.3498 2.20524 16.4604 2.63135 16.4604ZM8.04346 6.46631H12.3682L7.58691 1.59375V6.00146C7.58691 6.16748 7.62012 6.28646 7.68652 6.3584C7.75846 6.43034 7.87744 6.46631 8.04346 6.46631Z" fill="#333333"/>
</svg>
