<svg width="11" height="9" viewBox="0 0 11 9" fill="none" xmlns="http://www.w3.org/2000/svg">
<path d="M0.504883 8.4541C0.411784 8.4541 0.333008 8.43441 0.268555 8.39502C0.207682 8.35921 0.159342 8.31087 0.123535 8.25C0.0877279 8.18913 0.0626628 8.12288 0.0483398 8.05127C0.0304362 7.96891 0.0179036 7.86507 0.0107422 7.73975C0.00358073 7.61084 0 7.46761 0 7.31006C0 6.01025 0.279297 5.06673 0.837891 4.47949C1.39648 3.88867 2.31315 3.59326 3.58789 3.59326H7.34229L8.6582 3.66846L6.84814 2.01416L5.65576 0.800293C5.61279 0.757324 5.58057 0.707194 5.55908 0.649902C5.5376 0.58903 5.52686 0.526367 5.52686 0.461914C5.52686 0.329427 5.57161 0.220215 5.66113 0.134277C5.75423 0.0447591 5.86702 0 5.99951 0C6.12842 0 6.24837 0.0537109 6.35938 0.161133L9.91504 3.71143C10.026 3.81527 10.0815 3.93522 10.0815 4.07129C10.0815 4.20736 10.026 4.3291 9.91504 4.43652L6.34863 7.99756C6.24479 8.09782 6.12842 8.14795 5.99951 8.14795C5.86702 8.14795 5.75423 8.10498 5.66113 8.01904C5.57161 7.92952 5.52686 7.81852 5.52686 7.68604C5.52686 7.62158 5.5376 7.55892 5.55908 7.49805C5.58415 7.43717 5.61637 7.38525 5.65576 7.34229L6.84814 6.12842L8.66357 4.47412L7.34229 4.55469H3.63623C2.97738 4.55469 2.4528 4.64958 2.0625 4.83936C1.67578 5.02913 1.39648 5.32992 1.22461 5.7417C1.05632 6.15348 0.972168 6.69238 0.972168 7.3584C0.972168 7.48372 0.973958 7.59473 0.977539 7.69141C0.984701 7.78809 0.988281 7.88298 0.988281 7.97607C0.988281 8.11572 0.941732 8.23031 0.848633 8.31982C0.759115 8.40934 0.644531 8.4541 0.504883 8.4541Z" fill="#717182"/>
</svg>
