<svg width="11" height="11" viewBox="0 0 11 11" fill="none" xmlns="http://www.w3.org/2000/svg">
<path d="M5.47852 10.957C4.72298 10.957 4.014 10.8138 3.35156 10.5273C2.68913 10.2445 2.10726 9.85238 1.60596 9.35107C1.10465 8.84977 0.710775 8.2679 0.424316 7.60547C0.141439 6.94303 0 6.23405 0 5.47852C0 4.72298 0.141439 4.014 0.424316 3.35156C0.710775 2.68913 1.10465 2.10726 1.60596 1.60596C2.10726 1.10107 2.68913 0.707194 3.35156 0.424316C4.014 0.141439 4.72298 0 5.47852 0C6.23405 0 6.94303 0.141439 7.60547 0.424316C8.2679 0.707194 8.84977 1.10107 9.35107 1.60596C9.85238 2.10726 10.2445 2.68913 10.5273 3.35156C10.8138 4.014 10.957 4.72298 10.957 5.47852C10.957 6.23405 10.8138 6.94303 10.5273 7.60547C10.2445 8.2679 9.85238 8.84977 9.35107 9.35107C8.84977 9.85238 8.2679 10.2445 7.60547 10.5273C6.94303 10.8138 6.23405 10.957 5.47852 10.957ZM5.47852 10.0439C6.10872 10.0439 6.69954 9.92578 7.25098 9.68945C7.80241 9.45312 8.2876 9.12549 8.70654 8.70654C9.12549 8.2876 9.45312 7.80241 9.68945 7.25098C9.92578 6.69954 10.0439 6.10872 10.0439 5.47852C10.0439 4.84831 9.92578 4.25749 9.68945 3.70605C9.45312 3.15104 9.12549 2.66585 8.70654 2.25049C8.2876 1.83154 7.80241 1.50391 7.25098 1.26758C6.69954 1.03125 6.10872 0.913086 5.47852 0.913086C4.84831 0.913086 4.25749 1.03125 3.70605 1.26758C3.15462 1.50391 2.66943 1.83154 2.25049 2.25049C1.83154 2.66585 1.50391 3.15104 1.26758 3.70605C1.03125 4.25749 0.913086 4.84831 0.913086 5.47852C0.913086 6.10872 1.03125 6.69954 1.26758 7.25098C1.50391 7.80241 1.83154 8.2876 2.25049 8.70654C2.66943 9.12549 3.15462 9.45312 3.70605 9.68945C4.25749 9.92578 4.84831 10.0439 5.47852 10.0439ZM5.47314 8.16943C5.10075 8.16943 4.77311 8.10319 4.49023 7.9707C4.20736 7.83464 3.98714 7.68066 3.82959 7.50879C3.67562 7.33333 3.59863 7.18652 3.59863 7.06836C3.59863 7.00391 3.6237 6.95915 3.67383 6.93408C3.72396 6.90902 3.77767 6.90902 3.83496 6.93408C4.0319 7.0415 4.2557 7.14535 4.50635 7.24561C4.76058 7.34229 5.08285 7.39062 5.47314 7.39062C5.86344 7.39062 6.18392 7.34229 6.43457 7.24561C6.6888 7.14535 6.9126 7.0415 7.10596 6.93408C7.16325 6.90902 7.21696 6.90902 7.26709 6.93408C7.3208 6.95915 7.34766 7.00391 7.34766 7.06836C7.34766 7.18652 7.26888 7.33333 7.11133 7.50879C6.95736 7.68066 6.73893 7.83464 6.45605 7.9707C6.17318 8.10319 5.84554 8.16943 5.47314 8.16943ZM3.87793 5.00049C3.70964 5.00049 3.56283 4.93245 3.4375 4.79639C3.31217 4.65674 3.24951 4.47949 3.24951 4.26465C3.24951 4.0498 3.31217 3.87256 3.4375 3.73291C3.56283 3.59326 3.70964 3.52344 3.87793 3.52344C4.0498 3.52344 4.2002 3.59326 4.3291 3.73291C4.45801 3.87256 4.52246 4.0498 4.52246 4.26465C4.52246 4.47949 4.45801 4.65674 4.3291 4.79639C4.2002 4.93245 4.0498 5.00049 3.87793 5.00049ZM7.06299 5.00049C6.89469 5.00049 6.74788 4.93245 6.62256 4.79639C6.49723 4.65674 6.43457 4.47949 6.43457 4.26465C6.43457 4.0498 6.49723 3.87256 6.62256 3.73291C6.74788 3.59326 6.89469 3.52344 7.06299 3.52344C7.23486 3.52344 7.38525 3.59326 7.51416 3.73291C7.64307 3.87256 7.70752 4.0498 7.70752 4.26465C7.70752 4.47949 7.64307 4.65674 7.51416 4.79639C7.38525 4.93245 7.23486 5.00049 7.06299 5.00049Z" fill="#717182"/>
</svg>
