<svg width="20" height="16" viewBox="0 0 20 16" fill="none" xmlns="http://www.w3.org/2000/svg">
<path d="M18.7183 12.2686C18.7183 13.0654 18.5301 13.6686 18.1538 14.0781C17.7775 14.4932 17.2131 14.7007 16.4604 14.7007H2.54834C1.92855 14.7007 1.4637 14.5098 1.15381 14.1279C0.843913 13.7516 0.67513 13.1872 0.647461 12.4346L3.81006 9.5791C3.98161 9.41862 4.15592 9.30241 4.33301 9.23047C4.51009 9.15299 4.69271 9.11426 4.88086 9.11426C5.07454 9.11426 5.26546 9.15576 5.45361 9.23877C5.6473 9.31624 5.82992 9.43245 6.00146 9.5874L7.53711 10.9736L11.2891 7.62012C11.4827 7.4541 11.682 7.32959 11.8867 7.24658C12.0915 7.16357 12.3073 7.12207 12.5342 7.12207C12.7611 7.12207 12.9797 7.16634 13.1899 7.25488C13.4058 7.33789 13.605 7.46517 13.7876 7.63672L18.7183 12.2686ZM6.18408 7.71973C5.82438 7.71973 5.49512 7.63395 5.19629 7.4624C4.90299 7.28532 4.66781 7.04736 4.49072 6.74854C4.31364 6.44971 4.2251 6.12044 4.2251 5.76074C4.2251 5.40658 4.31364 5.08008 4.49072 4.78125C4.66781 4.48242 4.90299 4.24447 5.19629 4.06738C5.49512 3.8903 5.82438 3.80176 6.18408 3.80176C6.54378 3.80176 6.87028 3.8903 7.16357 4.06738C7.45687 4.24447 7.69206 4.48242 7.86914 4.78125C8.04622 5.08008 8.13477 5.40658 8.13477 5.76074C8.13477 6.12044 8.04622 6.44971 7.86914 6.74854C7.69206 7.04736 7.45687 7.28532 7.16357 7.4624C6.87028 7.63395 6.54378 7.71973 6.18408 7.71973ZM2.60645 15.2817C1.73763 15.2817 1.08464 15.0659 0.647461 14.6343C0.21582 14.2082 0 13.569 0 12.7168V2.57324C0 1.71549 0.21582 1.07357 0.647461 0.647461C1.08464 0.21582 1.73763 0 2.60645 0H16.9668C17.8411 0 18.4941 0.21582 18.9258 0.647461C19.3574 1.0791 19.5732 1.72103 19.5732 2.57324V12.7168C19.5732 13.569 19.3574 14.2082 18.9258 14.6343C18.4941 15.0659 17.8411 15.2817 16.9668 15.2817H2.60645ZM2.62305 13.9453H16.9502C17.3597 13.9453 17.6751 13.8374 17.8965 13.6216C18.1234 13.4002 18.2368 13.0737 18.2368 12.6421V2.64795C18.2368 2.21631 18.1234 1.88981 17.8965 1.66846C17.6751 1.4471 17.3597 1.33643 16.9502 1.33643H2.62305C2.20801 1.33643 1.88981 1.4471 1.66846 1.66846C1.4471 1.88981 1.33643 2.21631 1.33643 2.64795V12.6421C1.33643 13.0737 1.4471 13.4002 1.66846 13.6216C1.88981 13.8374 2.20801 13.9453 2.62305 13.9453Z" fill="#333333"/>
</svg>
