<svg width="15" height="15" viewBox="0 0 15 15" fill="none" xmlns="http://www.w3.org/2000/svg">
<path d="M2.2998 14.48C1.53809 14.48 0.964355 14.2896 0.578613 13.9087C0.192871 13.5327 0 12.9663 0 12.2095V3.77197C0 3.01514 0.192871 2.44873 0.578613 2.07275C0.964355 1.69189 1.53809 1.50146 2.2998 1.50146H10.5981L9.41895 2.68066H2.32178C1.95557 2.68066 1.67236 2.77832 1.47217 2.97363C1.27686 3.16895 1.1792 3.45703 1.1792 3.83789V12.1509C1.1792 12.5317 1.27686 12.8198 1.47217 13.0151C1.67236 13.2056 1.95557 13.3008 2.32178 13.3008H10.8838C11.1377 13.3008 11.3525 13.2056 11.5283 13.0151C11.709 12.8198 11.7993 12.5317 11.7993 12.1509V5.11963L12.9785 3.94043V12.2095C12.9785 12.9663 12.7954 13.5327 12.4292 13.9087C12.0679 14.2896 11.5576 14.48 10.8984 14.48H2.2998ZM4.96582 9.73389C4.89746 9.76318 4.83398 9.74854 4.77539 9.68994C4.72168 9.62646 4.70947 9.56299 4.73877 9.49951L5.39795 8.12256L12.2314 1.28906L13.2349 2.27783L6.39404 9.11133L4.96582 9.73389ZM13.7769 1.74316L12.7734 0.732422L13.3081 0.205078C13.4302 0.0878906 13.5693 0.0244141 13.7256 0.0146484C13.8867 0.00488281 14.0234 0.0561523 14.1357 0.168457L14.3042 0.344238C14.4312 0.466309 14.4922 0.60791 14.4873 0.769043C14.4873 0.925293 14.4263 1.06934 14.3042 1.20117L13.7769 1.74316Z" fill="white"/>
</svg>
