<svg width="14" height="14" viewBox="0 0 14 14" fill="none" xmlns="http://www.w3.org/2000/svg">
<path d="M2.46533 12.9243L0.464844 13.688C0.348633 13.7378 0.240723 13.7129 0.141113 13.6133C0.0470378 13.5137 0.0221354 13.403 0.0664062 13.2812L0.879883 11.3389L10.1934 2.03369L11.7705 3.61914L2.46533 12.9243ZM12.5591 2.84717L10.9653 1.25342L11.8618 0.373535C12.0832 0.157715 12.3101 0.0415039 12.5425 0.0249023C12.7804 0.00830078 12.999 0.0996094 13.1982 0.298828L13.522 0.622559C13.7267 0.827311 13.8236 1.0459 13.8125 1.27832C13.8014 1.51074 13.6825 1.7404 13.4556 1.96729L12.5591 2.84717Z" fill="#A846C3"/>
</svg>
