<svg width="14" height="18" viewBox="0 0 14 18" fill="none" xmlns="http://www.w3.org/2000/svg">
<path d="M3.06299 2.74756H8.15137C8.31738 2.74756 8.44743 2.80013 8.5415 2.90527C8.63558 3.00488 8.68262 3.14046 8.68262 3.31201V4.69824C8.68262 4.86979 8.63558 5.00814 8.5415 5.11328C8.44743 5.21289 8.31738 5.2627 8.15137 5.2627H3.06299C2.89144 5.2627 2.75863 5.21289 2.66455 5.11328C2.57048 5.00814 2.52344 4.86979 2.52344 4.69824V3.31201C2.52344 3.14046 2.57048 3.00488 2.66455 2.90527C2.75863 2.80013 2.89144 2.74756 3.06299 2.74756ZM3.06299 6.00977H10.9155C11.0815 6.00977 11.2116 6.05957 11.3057 6.15918C11.3997 6.25879 11.4468 6.39437 11.4468 6.56592V7.95215C11.4468 8.12923 11.3997 8.26758 11.3057 8.36719C11.2116 8.4668 11.0815 8.5166 10.9155 8.5166H3.06299C2.89144 8.5166 2.75863 8.4668 2.66455 8.36719C2.57048 8.26758 2.52344 8.132 2.52344 7.96045V6.56592C2.52344 6.39437 2.57048 6.25879 2.66455 6.15918C2.75863 6.05957 2.89144 6.00977 3.06299 6.00977ZM3.06299 9.27197H9.5459C9.71191 9.27197 9.84196 9.32178 9.93604 9.42139C10.0301 9.51546 10.0771 9.64827 10.0771 9.81982V11.2227C10.0771 11.3942 10.0301 11.5298 9.93604 11.6294C9.84196 11.729 9.71191 11.7788 9.5459 11.7788H3.06299C2.89144 11.7788 2.75863 11.729 2.66455 11.6294C2.57048 11.5298 2.52344 11.3942 2.52344 11.2227V9.81982C2.52344 9.64827 2.57048 9.51546 2.66455 9.42139C2.75863 9.32178 2.89144 9.27197 3.06299 9.27197ZM3.06299 12.5259H6.81494C6.97542 12.5259 7.1027 12.5785 7.19678 12.6836C7.29639 12.7832 7.34619 12.9188 7.34619 13.0903V14.4766C7.34619 14.6481 7.29639 14.7865 7.19678 14.8916C7.1027 14.9912 6.97542 15.041 6.81494 15.041H3.06299C2.89144 15.041 2.75863 14.9912 2.66455 14.8916C2.57048 14.7865 2.52344 14.6481 2.52344 14.4766V13.0903C2.52344 12.9188 2.57048 12.7832 2.66455 12.6836C2.75863 12.5785 2.89144 12.5259 3.06299 12.5259ZM0 15.1987V2.60645C0 1.74316 0.213053 1.09294 0.63916 0.655762C1.0708 0.218587 1.71549 0 2.57324 0H11.3887C12.2464 0 12.8883 0.218587 13.3145 0.655762C13.7461 1.09294 13.9619 1.74316 13.9619 2.60645V15.1987C13.9619 16.0675 13.7461 16.7178 13.3145 17.1494C12.8883 17.5811 12.2464 17.7969 11.3887 17.7969H2.57324C1.71549 17.7969 1.0708 17.5811 0.63916 17.1494C0.213053 16.7178 0 16.0675 0 15.1987ZM1.33643 15.1738C1.33643 15.5889 1.44434 15.9071 1.66016 16.1284C1.88151 16.3498 2.20801 16.4604 2.63965 16.4604H11.3223C11.7539 16.4604 12.0776 16.3498 12.2935 16.1284C12.5148 15.9071 12.6255 15.5889 12.6255 15.1738V2.63135C12.6255 2.21631 12.5148 1.89811 12.2935 1.67676C12.0776 1.44987 11.7539 1.33643 11.3223 1.33643H2.63965C2.20801 1.33643 1.88151 1.44987 1.66016 1.67676C1.44434 1.89811 1.33643 2.21631 1.33643 2.63135V15.1738Z" fill="#333333"/>
</svg>
