<svg width="14" height="12" viewBox="0 0 14 12" fill="none" xmlns="http://www.w3.org/2000/svg">
<path d="M0.539551 5.87158C0.382975 5.87158 0.253906 5.8208 0.152344 5.71924C0.0507812 5.61344 0 5.48438 0 5.33203V4.65283C0 4.07731 0.126953 3.58219 0.380859 3.16748C0.634766 2.75277 0.990234 2.43327 1.44727 2.20898C1.90853 1.9847 2.4502 1.87256 3.07227 1.87256H7.92188V0.399902C7.92188 0.268717 7.95785 0.169271 8.02979 0.101562C8.10173 0.0338542 8.20329 0 8.33447 0C8.39372 0 8.45085 0.0105794 8.50586 0.0317383C8.56087 0.0486654 8.61165 0.0761719 8.6582 0.114258L11.0576 2.10742C11.1676 2.19629 11.2205 2.29785 11.2163 2.41211C11.2121 2.52637 11.1592 2.62581 11.0576 2.71045L8.6582 4.69727C8.61165 4.73535 8.56087 4.76497 8.50586 4.78613C8.45085 4.80729 8.39372 4.81787 8.33447 4.81787C8.20329 4.81787 8.10173 4.78402 8.02979 4.71631C7.95785 4.64437 7.92188 4.54492 7.92188 4.41797V2.92627H2.9707C2.39518 2.92627 1.93604 3.09131 1.59326 3.42139C1.25049 3.74723 1.0791 4.18311 1.0791 4.729V5.33203C1.0791 5.48438 1.0262 5.61344 0.92041 5.71924C0.818848 5.8208 0.691895 5.87158 0.539551 5.87158ZM13.0127 5.4209C13.165 5.4209 13.292 5.47168 13.3936 5.57324C13.4993 5.6748 13.5522 5.80387 13.5522 5.96045V6.63965C13.5522 7.21094 13.4253 7.70605 13.1714 8.125C12.9175 8.53971 12.5599 8.85921 12.0986 9.0835C11.6374 9.30778 11.0957 9.41992 10.4736 9.41992H5.62402V10.9053C5.62402 11.0322 5.58805 11.1296 5.51611 11.1973C5.4484 11.2692 5.34896 11.3052 5.21777 11.3052C5.15853 11.3052 5.09928 11.2946 5.04004 11.2734C4.98503 11.2523 4.93424 11.2227 4.8877 11.1846L2.48828 9.19141C2.38249 9.10677 2.32959 9.00732 2.32959 8.89307C2.33382 8.77881 2.38672 8.67725 2.48828 8.58838L4.8877 6.60156C4.93424 6.56348 4.98503 6.53597 5.04004 6.51904C5.09928 6.49788 5.15853 6.4873 5.21777 6.4873C5.34896 6.4873 5.4484 6.52116 5.51611 6.58887C5.58805 6.65658 5.62402 6.75602 5.62402 6.88721V8.35986H10.5752C11.1549 8.35986 11.6162 8.19694 11.959 7.87109C12.3018 7.54525 12.4731 7.10938 12.4731 6.56348V5.96045C12.4731 5.80387 12.5239 5.6748 12.6255 5.57324C12.7271 5.47168 12.8561 5.4209 13.0127 5.4209Z" fill="#717182"/>
</svg>
