<svg width="11" height="11" viewBox="0 0 11 11" fill="none" xmlns="http://www.w3.org/2000/svg">
<path d="M10.1514 6.5957C10.1514 7.2832 10.0046 7.88298 9.71094 8.39502C9.4209 8.91064 8.99658 9.3099 8.43799 9.59277C7.87939 9.87923 7.19906 10.0225 6.39697 10.0225H5.15625C5.00944 10.0225 4.89128 9.97591 4.80176 9.88281C4.71224 9.78971 4.66748 9.67692 4.66748 9.54443C4.66748 9.41195 4.71224 9.29915 4.80176 9.20605C4.89128 9.11296 5.00944 9.06641 5.15625 9.06641H6.3916C7.00391 9.06641 7.51774 8.9554 7.93311 8.7334C8.34847 8.51497 8.66178 8.21598 8.87305 7.83643C9.08431 7.45687 9.18994 7.02539 9.18994 6.54199C9.18994 6.06217 9.08431 5.63786 8.87305 5.26904C8.66178 4.89665 8.34847 4.60661 7.93311 4.39893C7.51774 4.19124 7.00391 4.0874 6.3916 4.0874H2.70166L1.03662 4.01221L1.1333 3.76514L2.45996 4.90381L4.01221 6.41309C4.0516 6.45605 4.08203 6.50439 4.10352 6.55811C4.12858 6.61182 4.14111 6.67269 4.14111 6.74072C4.14111 6.88037 4.09635 6.99495 4.00684 7.08447C3.9209 7.17041 3.80632 7.21338 3.66309 7.21338C3.5306 7.21338 3.41602 7.16325 3.31934 7.06299L0.161133 3.96387C0.107422 3.91374 0.0662435 3.85824 0.0375977 3.79736C0.0125326 3.73649 0 3.67383 0 3.60938C0 3.54134 0.0125326 3.47689 0.0375977 3.41602C0.0662435 3.35514 0.107422 3.29964 0.161133 3.24951L3.31934 0.150391C3.41602 0.0501302 3.5306 0 3.66309 0C3.80632 0 3.9209 0.0447591 4.00684 0.134277C4.09635 0.220215 4.14111 0.333008 4.14111 0.472656C4.14111 0.54069 4.12858 0.601562 4.10352 0.655273C4.08203 0.708984 4.0516 0.757324 4.01221 0.800293L2.45996 2.31494L1.1333 3.44824L1.03662 3.20117L2.70166 3.12598H6.31104C7.12744 3.12598 7.8221 3.27279 8.39502 3.56641C8.96794 3.86003 9.40299 4.26823 9.7002 4.79102C10.001 5.31022 10.1514 5.91178 10.1514 6.5957Z" fill="#717182"/>
</svg>
