<svg width="16" height="16" viewBox="0 0 16 16" fill="none" xmlns="http://www.w3.org/2000/svg">
<path d="M9.16992 15.3442C8.82812 15.3442 8.58154 15.2222 8.43018 14.978C8.27881 14.7339 8.14941 14.4287 8.04199 14.0625L6.50391 8.84033L1.21582 7.2876C0.864258 7.18018 0.57373 7.05322 0.344238 6.90674C0.114746 6.75537 0 6.51123 0 6.17432C0 5.91064 0.10498 5.68359 0.314941 5.49316C0.524902 5.30273 0.783691 5.14893 1.09131 5.03174L13.689 0.205078C13.8599 0.141602 14.0186 0.0927734 14.165 0.0585938C14.3164 0.0195312 14.4531 0 14.5752 0C14.8145 0 15.0024 0.0683594 15.1392 0.205078C15.2759 0.341797 15.3442 0.529785 15.3442 0.769043C15.3442 0.895996 15.3247 1.03271 15.2856 1.1792C15.2515 1.32568 15.2026 1.48438 15.1392 1.65527L10.3418 14.187C10.2051 14.5386 10.0415 14.8193 9.85107 15.0293C9.66064 15.2393 9.43359 15.3442 9.16992 15.3442ZM6.8335 7.72705L11.8726 2.68799C12.0728 2.48779 12.3096 2.27539 12.583 2.05078C12.8564 1.82617 13.1152 1.61621 13.3594 1.4209C13.0859 1.54785 12.8076 1.67969 12.5244 1.81641C12.2461 1.94824 11.9604 2.07031 11.6675 2.18262L1.76514 5.93262C1.71143 5.95215 1.6748 5.97412 1.65527 5.99854C1.63574 6.01807 1.62598 6.04004 1.62598 6.06445C1.62598 6.08887 1.63574 6.11084 1.65527 6.13037C1.67969 6.1499 1.72119 6.16699 1.77979 6.18164L6.8335 7.72705ZM9.28711 13.7329C9.31152 13.7329 9.3335 13.7207 9.35303 13.6963C9.37256 13.6719 9.39209 13.6328 9.41162 13.5791L13.1616 3.67676C13.2739 3.37891 13.3984 3.08838 13.5352 2.80518C13.6719 2.52197 13.8037 2.24121 13.9307 1.96289C13.7354 2.21191 13.5229 2.47559 13.2935 2.75391C13.0688 3.03223 12.8564 3.27148 12.6562 3.47168L7.61719 8.51074L9.1626 13.5645C9.18213 13.623 9.19922 13.6646 9.21387 13.689C9.2334 13.7183 9.25781 13.7329 9.28711 13.7329Z" fill="white"/>
</svg>
