<svg width="8" height="8" viewBox="0 0 8 8" fill="none" xmlns="http://www.w3.org/2000/svg">
<path d="M5.33329 7V6.33333C5.33329 5.97971 5.19282 5.64057 4.94277 5.39052C4.69272 5.14048 4.35358 5 3.99996 5H1.99996C1.64634 5 1.3072 5.14048 1.05715 5.39052C0.807102 5.64057 0.666626 5.97971 0.666626 6.33333V7" stroke="white" stroke-width="0.666667" stroke-linecap="round" stroke-linejoin="round"/>
<path d="M5.33337 1.04272C5.61929 1.11685 5.87251 1.28381 6.05327 1.51741C6.23403 1.75101 6.33211 2.03802 6.33211 2.33339C6.33211 2.62876 6.23403 2.91577 6.05327 3.14937C5.87251 3.38297 5.61929 3.54993 5.33337 3.62406" stroke="white" stroke-width="0.666667" stroke-linecap="round" stroke-linejoin="round"/>
<path d="M7.33337 7V6.33333C7.33315 6.03791 7.23483 5.75093 7.05383 5.51744C6.87283 5.28395 6.61942 5.11719 6.33337 5.04333" stroke="white" stroke-width="0.666667" stroke-linecap="round" stroke-linejoin="round"/>
<path d="M2.99996 3.66667C3.73634 3.66667 4.33329 3.06971 4.33329 2.33333C4.33329 1.59695 3.73634 1 2.99996 1C2.26358 1 1.66663 1.59695 1.66663 2.33333C1.66663 3.06971 2.26358 3.66667 2.99996 3.66667Z" stroke="white" stroke-width="0.666667" stroke-linecap="round" stroke-linejoin="round"/>
</svg>
