<svg width="15" height="19" viewBox="0 0 15 19" fill="none" xmlns="http://www.w3.org/2000/svg">
<path d="M2.71436 19.0005C1.81787 19.0005 1.13997 18.7736 0.680664 18.3198C0.226888 17.866 0 17.1965 0 16.311V8.17627C0 7.29085 0.226888 6.62402 0.680664 6.17578C1.13997 5.72201 1.81787 5.49512 2.71436 5.49512H5.16309V7.09717H2.80566C2.41829 7.09717 2.11947 7.19954 1.90918 7.4043C1.70443 7.60352 1.60205 7.90511 1.60205 8.30908V16.1782C1.60205 16.5877 1.70443 16.8921 1.90918 17.0913C2.11947 17.2961 2.41829 17.3984 2.80566 17.3984H12.1689C12.5563 17.3984 12.8524 17.2961 13.0571 17.0913C13.2674 16.8921 13.3726 16.5877 13.3726 16.1782V8.30908C13.3726 7.90511 13.2674 7.60352 13.0571 7.4043C12.8524 7.19954 12.5563 7.09717 12.1689 7.09717H9.81152V5.49512H12.2686C13.165 5.49512 13.8402 5.72201 14.2939 6.17578C14.7533 6.62402 14.9829 7.29085 14.9829 8.17627V16.311C14.9829 17.1965 14.7533 17.866 14.2939 18.3198C13.8402 18.7736 13.165 19.0005 12.2686 19.0005H2.71436ZM7.4873 12.3184C7.28255 12.3184 7.10547 12.2464 6.95605 12.1025C6.80664 11.9531 6.73193 11.7788 6.73193 11.5796V3.2373L6.79004 2.00879L6.3501 2.53174L5.15479 3.80176C5.02197 3.95117 4.85042 4.02588 4.64014 4.02588C4.45752 4.02588 4.2998 3.96501 4.16699 3.84326C4.03418 3.71598 3.96777 3.55827 3.96777 3.37012C3.96777 3.19303 4.03971 3.02979 4.18359 2.88037L6.91455 0.249023C7.01416 0.154948 7.10824 0.0913086 7.19678 0.0581055C7.29085 0.0193685 7.3877 0 7.4873 0C7.59245 0 7.68929 0.0193685 7.77783 0.0581055C7.87191 0.0913086 7.96598 0.154948 8.06006 0.249023L10.7993 2.88037C10.9377 3.02979 11.0068 3.19303 11.0068 3.37012C11.0068 3.55827 10.9404 3.71598 10.8076 3.84326C10.6748 3.96501 10.5143 4.02588 10.3262 4.02588C10.1214 4.02588 9.95264 3.95117 9.81982 3.80176L8.63281 2.53174L8.19287 2.00879L8.25098 3.2373V11.5796C8.25098 11.7788 8.17627 11.9531 8.02686 12.1025C7.87744 12.2464 7.69759 12.3184 7.4873 12.3184Z" fill="#A846C3"/>
</svg>
