<svg width="11" height="12" viewBox="0 0 11 12" fill="none" xmlns="http://www.w3.org/2000/svg">
<path d="M3.60938 10.2319C3.50911 10.2319 3.42855 10.2033 3.36768 10.146C3.3068 10.0887 3.27458 10.0117 3.271 9.91504L3.10986 4.17334C3.10628 4.08024 3.13493 4.00505 3.1958 3.94775C3.26025 3.88688 3.34261 3.85645 3.44287 3.85645C3.53955 3.85645 3.61833 3.88509 3.6792 3.94238C3.74365 3.99967 3.77588 4.07487 3.77588 4.16797L3.94238 9.91504C3.94238 10.0081 3.91195 10.0851 3.85107 10.146C3.7902 10.2033 3.70964 10.2319 3.60938 10.2319ZM5.19922 10.2319C5.09896 10.2319 5.0166 10.2033 4.95215 10.146C4.8877 10.0851 4.85547 10.0081 4.85547 9.91504V4.17334C4.85547 4.08024 4.8877 4.00505 4.95215 3.94775C5.0166 3.88688 5.09896 3.85645 5.19922 3.85645C5.30306 3.85645 5.38721 3.88688 5.45166 3.94775C5.51611 4.00505 5.54834 4.08024 5.54834 4.17334V9.91504C5.54834 10.0081 5.51611 10.0851 5.45166 10.146C5.38721 10.2033 5.30306 10.2319 5.19922 10.2319ZM6.79443 10.2319C6.69059 10.2319 6.60824 10.2033 6.54736 10.146C6.48649 10.0851 6.45785 10.0081 6.46143 9.91504L6.62256 4.17334C6.62614 4.07666 6.65837 3.99967 6.71924 3.94238C6.78011 3.88509 6.85889 3.85645 6.95557 3.85645C7.05941 3.85645 7.14176 3.88688 7.20264 3.94775C7.26351 4.00505 7.29215 4.08024 7.28857 4.17334L7.12744 9.91504C7.12386 10.0117 7.09163 10.0887 7.03076 10.146C6.96989 10.2033 6.89111 10.2319 6.79443 10.2319ZM2.84131 2.45459V1.25146C2.84131 0.864746 2.95947 0.560384 3.1958 0.338379C3.43571 0.112793 3.76156 0 4.17334 0H6.21436C6.62614 0 6.9502 0.112793 7.18652 0.338379C7.42643 0.560384 7.54639 0.864746 7.54639 1.25146V2.45459H6.69238V1.30518C6.69238 1.15479 6.64225 1.03304 6.54199 0.939941C6.44531 0.846842 6.31641 0.800293 6.15527 0.800293H4.23242C4.07129 0.800293 3.94059 0.846842 3.84033 0.939941C3.74365 1.03304 3.69531 1.15479 3.69531 1.30518V2.45459H2.84131ZM0.402832 2.88428C0.29541 2.88428 0.200521 2.84489 0.118164 2.76611C0.039388 2.68376 0 2.58708 0 2.47607C0 2.36865 0.039388 2.27555 0.118164 2.19678C0.200521 2.11442 0.29541 2.07324 0.402832 2.07324H10.001C10.1084 2.07324 10.2015 2.11263 10.2803 2.19141C10.359 2.27018 10.3984 2.36507 10.3984 2.47607C10.3984 2.58708 10.359 2.68376 10.2803 2.76611C10.2051 2.84489 10.112 2.88428 10.001 2.88428H0.402832ZM2.73926 11.9614C2.35254 11.9614 2.03923 11.8468 1.79932 11.6177C1.56299 11.3921 1.43587 11.0859 1.41797 10.6992L1.03662 2.78223H1.87988L2.26123 10.6025C2.26839 10.7601 2.32389 10.8908 2.42773 10.9946C2.53158 11.0985 2.66048 11.1504 2.81445 11.1504H7.57861C7.73617 11.1504 7.86686 11.0985 7.9707 10.9946C8.07454 10.8944 8.13005 10.7637 8.13721 10.6025L8.49707 2.78223H9.36182L8.98584 10.6938C8.96794 11.0806 8.83903 11.3885 8.59912 11.6177C8.35921 11.8468 8.04769 11.9614 7.66455 11.9614H2.73926Z" fill="#717182"/>
</svg>
