<svg width="18" height="12" viewBox="0 0 18 12" fill="none" xmlns="http://www.w3.org/2000/svg">
<path d="M8.14404 11.7559C7.10726 11.7559 6.58887 11.4173 6.58887 10.7402C6.58887 10.3255 6.71582 9.8833 6.96973 9.41357C7.22363 8.94385 7.58968 8.50163 8.06787 8.08691C8.55029 7.66797 9.13216 7.32731 9.81348 7.06494C10.499 6.80257 11.2713 6.67139 12.1304 6.67139C12.9937 6.67139 13.766 6.80257 14.4473 7.06494C15.1328 7.32731 15.7147 7.66797 16.1929 8.08691C16.6753 8.50163 17.0435 8.94385 17.2974 9.41357C17.5513 9.8833 17.6782 10.3255 17.6782 10.7402C17.6782 11.4173 17.1577 11.7559 16.1167 11.7559H8.14404ZM7.83936 10.7974H16.4214C16.506 10.7974 16.5653 10.7847 16.5991 10.7593C16.6372 10.7339 16.6562 10.6873 16.6562 10.6196C16.6562 10.3573 16.5568 10.0568 16.3579 9.71826C16.1632 9.37972 15.8734 9.05176 15.4883 8.73438C15.1032 8.41699 14.6292 8.15462 14.0664 7.94727C13.5036 7.73568 12.8582 7.62988 12.1304 7.62988C11.4025 7.62988 10.7572 7.73568 10.1943 7.94727C9.63574 8.15462 9.1639 8.41699 8.77881 8.73438C8.39372 9.05176 8.10173 9.37972 7.90283 9.71826C7.70817 10.0568 7.61084 10.3573 7.61084 10.6196C7.61084 10.6873 7.62777 10.7339 7.66162 10.7593C7.69971 10.7847 7.75895 10.7974 7.83936 10.7974ZM12.1367 5.87793C11.6331 5.87793 11.174 5.74463 10.7593 5.47803C10.3446 5.21143 10.0124 4.85384 9.7627 4.40527C9.51725 3.95247 9.39453 3.45524 9.39453 2.91357C9.39453 2.37614 9.51725 1.88737 9.7627 1.44727C10.0124 1.00716 10.3446 0.655924 10.7593 0.393555C11.174 0.131185 11.6331 0 12.1367 0C12.6445 0 13.1058 0.129069 13.5205 0.387207C13.9352 0.645345 14.2653 0.994466 14.5107 1.43457C14.7562 1.87044 14.8789 2.35921 14.8789 2.90088C14.8789 3.44678 14.7541 3.94613 14.5044 4.39893C14.259 4.84749 13.9289 5.20719 13.5142 5.47803C13.0994 5.74463 12.6403 5.87793 12.1367 5.87793ZM12.1367 4.91943C12.4499 4.91943 12.7355 4.83057 12.9937 4.65283C13.256 4.47087 13.4655 4.22754 13.6221 3.92285C13.7786 3.61393 13.8569 3.27327 13.8569 2.90088C13.8569 2.53271 13.7786 2.20264 13.6221 1.91064C13.4697 1.61442 13.2624 1.38167 13 1.2124C12.7419 1.04313 12.4541 0.958496 12.1367 0.958496C11.8236 0.958496 11.5358 1.04525 11.2734 1.21875C11.0153 1.38802 10.8079 1.62077 10.6514 1.91699C10.4948 2.21322 10.4165 2.54541 10.4165 2.91357C10.4165 3.28597 10.4948 3.62451 10.6514 3.9292C10.8122 4.23389 11.0216 4.4751 11.2798 4.65283C11.5422 4.83057 11.8278 4.91943 12.1367 4.91943ZM1.28857 11.7559C0.861165 11.7559 0.539551 11.667 0.32373 11.4893C0.10791 11.3158 0 11.0513 0 10.6958C0 10.1711 0.124837 9.66748 0.374512 9.18506C0.624186 8.6984 0.969076 8.26676 1.40918 7.89014C1.85352 7.50928 2.36556 7.20882 2.94531 6.98877C3.5293 6.76872 4.15348 6.65869 4.81787 6.65869C5.16911 6.65869 5.50977 6.69043 5.83984 6.75391C6.16992 6.81315 6.4873 6.90413 6.79199 7.02686C7.10091 7.14535 7.3929 7.29346 7.66797 7.47119C7.52409 7.57275 7.3929 7.68066 7.27441 7.79492C7.15592 7.90495 7.04801 8.02344 6.95068 8.15039C6.74333 8.02767 6.52539 7.92611 6.29688 7.8457C6.07259 7.7653 5.83561 7.70394 5.58594 7.66162C5.34049 7.6193 5.08447 7.59814 4.81787 7.59814C4.29736 7.59814 3.80436 7.68278 3.33887 7.85205C2.87337 8.01709 2.46077 8.24349 2.10107 8.53125C1.74137 8.81478 1.45785 9.13851 1.25049 9.50244C1.04736 9.86637 0.945801 10.2451 0.945801 10.6387C0.945801 10.7021 0.960612 10.7466 0.990234 10.772C1.01986 10.8016 1.06852 10.8164 1.13623 10.8164H5.78271C5.76156 11.0111 5.79964 11.1951 5.89697 11.3687C5.9943 11.5422 6.11914 11.6712 6.27148 11.7559H1.28857ZM4.82422 5.93506C4.38835 5.93506 3.99056 5.81868 3.63086 5.58594C3.27116 5.34896 2.9834 5.03369 2.76758 4.64014C2.55176 4.24658 2.44385 3.81071 2.44385 3.33252C2.44385 2.86279 2.55176 2.43538 2.76758 2.05029C2.9834 1.66097 3.27116 1.35205 3.63086 1.12354C3.99056 0.890788 4.38835 0.774414 4.82422 0.774414C5.26432 0.774414 5.66423 0.888672 6.02393 1.11719C6.38363 1.3457 6.66927 1.65251 6.88086 2.0376C7.09668 2.42269 7.20459 2.8501 7.20459 3.31982C7.20459 3.79801 7.09668 4.236 6.88086 4.63379C6.66504 5.03158 6.37728 5.34896 6.01758 5.58594C5.65788 5.81868 5.26009 5.93506 4.82422 5.93506ZM4.82422 4.98926C5.08236 4.98926 5.32145 4.9152 5.5415 4.76709C5.76156 4.61475 5.93717 4.41374 6.06836 4.16406C6.19954 3.91016 6.26514 3.62874 6.26514 3.31982C6.26514 3.01937 6.19954 2.74854 6.06836 2.50732C5.94141 2.26611 5.7679 2.07568 5.54785 1.93604C5.33203 1.79215 5.09082 1.72021 4.82422 1.72021C4.56185 1.72021 4.32064 1.79215 4.10059 1.93604C3.88477 2.07992 3.71126 2.27458 3.58008 2.52002C3.45312 2.76123 3.38965 3.03206 3.38965 3.33252C3.38965 3.63721 3.45524 3.9165 3.58643 4.17041C3.71761 4.42008 3.89111 4.61898 4.10693 4.76709C4.32699 4.9152 4.56608 4.98926 4.82422 4.98926Z" fill="#121212"/>
</svg>
