<svg width="10" height="14" viewBox="0 0 10 14" fill="none" xmlns="http://www.w3.org/2000/svg">
<path d="M0 6.70947V5.4209C0 5.28971 0.0465495 5.17757 0.139648 5.08447C0.232747 4.99137 0.344889 4.94482 0.476074 4.94482C0.611491 4.94482 0.725749 4.99137 0.818848 5.08447C0.911947 5.17757 0.958496 5.28971 0.958496 5.4209V6.67139C0.958496 7.39079 1.10661 8.02132 1.40283 8.56299C1.69906 9.10465 2.11589 9.52572 2.65332 9.82617C3.19076 10.1224 3.82129 10.2705 4.54492 10.2705C5.26855 10.2705 5.89697 10.1224 6.43018 9.82617C6.96761 9.52572 7.38444 9.10465 7.68066 8.56299C7.97689 8.02132 8.125 7.39079 8.125 6.67139V5.4209C8.125 5.28971 8.17155 5.17757 8.26465 5.08447C8.35775 4.99137 8.47201 4.94482 8.60742 4.94482C8.73861 4.94482 8.85075 4.99137 8.94385 5.08447C9.03695 5.17757 9.0835 5.28971 9.0835 5.4209V6.70947C9.0835 7.5389 8.91211 8.27523 8.56934 8.91846C8.23079 9.56169 7.75684 10.078 7.14746 10.4673C6.53809 10.8524 5.82926 11.0788 5.021 11.1465V12.6255H7.37598C7.51139 12.6255 7.62565 12.672 7.71875 12.7651C7.81185 12.8582 7.8584 12.9725 7.8584 13.1079C7.8584 13.2391 7.81185 13.3512 7.71875 13.4443C7.62565 13.5374 7.51139 13.584 7.37598 13.584H1.70752C1.5721 13.584 1.45785 13.5374 1.36475 13.4443C1.27165 13.3512 1.2251 13.2391 1.2251 13.1079C1.2251 12.9725 1.27165 12.8582 1.36475 12.7651C1.45785 12.672 1.5721 12.6255 1.70752 12.6255H4.0625V11.1465C3.25423 11.0788 2.54541 10.8524 1.93604 10.4673C1.32666 10.078 0.850586 9.56169 0.507812 8.91846C0.169271 8.27523 0 7.5389 0 6.70947ZM2.23438 6.48096V2.48828C2.23438 2.00163 2.33171 1.5721 2.52637 1.19971C2.72103 0.823079 2.99186 0.528971 3.33887 0.317383C3.68587 0.105794 4.08789 0 4.54492 0C4.99772 0 5.39762 0.105794 5.74463 0.317383C6.09163 0.528971 6.36247 0.823079 6.55713 1.19971C6.75179 1.5721 6.84912 2.00163 6.84912 2.48828V6.48096C6.84912 6.96761 6.75179 7.39925 6.55713 7.77588C6.36247 8.14827 6.09163 8.44027 5.74463 8.65186C5.39762 8.86344 4.99772 8.96924 4.54492 8.96924C4.08789 8.96924 3.68587 8.86344 3.33887 8.65186C2.99186 8.44027 2.72103 8.14827 2.52637 7.77588C2.33171 7.39925 2.23438 6.96761 2.23438 6.48096ZM3.19287 6.48096C3.19287 6.95068 3.31559 7.3252 3.56104 7.60449C3.81071 7.88379 4.13867 8.02344 4.54492 8.02344C4.95117 8.02344 5.27702 7.88379 5.52246 7.60449C5.7679 7.3252 5.89062 6.95068 5.89062 6.48096V2.48828C5.89062 2.01855 5.7679 1.64404 5.52246 1.36475C5.27702 1.08545 4.95117 0.945801 4.54492 0.945801C4.13867 0.945801 3.81071 1.08545 3.56104 1.36475C3.31559 1.64404 3.19287 2.01855 3.19287 2.48828V6.48096Z" fill="#121212"/>
</svg>
