<svg width="25" height="19" viewBox="0 0 25 19" fill="none" xmlns="http://www.w3.org/2000/svg">
    <path
        d="M2.30469 18.3887C1.54297 18.3887 0.966797 18.2064 0.576172 17.8418C0.192057 17.4772 0 16.9336 0 16.2109V7.88086C0 7.1582 0.192057 6.61458 0.576172 6.25C0.966797 5.87891 1.54297 5.69336 2.30469 5.69336H4.93164C5.69336 5.69336 6.26953 5.87891 6.66016 6.25C7.05078 6.61458 7.24609 7.1582 7.24609 7.88086V16.2109C7.24609 16.9336 7.05078 17.4772 6.66016 17.8418C6.26953 18.2064 5.69336 18.3887 4.93164 18.3887H2.30469ZM2.55859 16.9141H4.67773C5.05534 16.9141 5.31901 16.8392 5.46875 16.6895C5.61849 16.5462 5.69336 16.2923 5.69336 15.9277V8.16406C5.69336 7.79297 5.61849 7.53581 5.46875 7.39258C5.31901 7.24284 5.05534 7.16797 4.67773 7.16797H2.55859C2.1875 7.16797 1.92708 7.24284 1.77734 7.39258C1.6276 7.53581 1.55273 7.79297 1.55273 8.16406V15.9277C1.55273 16.2923 1.6276 16.5462 1.77734 16.6895C1.92708 16.8392 2.1875 16.9141 2.55859 16.9141ZM11.084 18.3887C10.3223 18.3887 9.74609 18.2064 9.35547 17.8418C8.97135 17.4772 8.7793 16.9336 8.7793 16.2109V5.03906C8.7793 4.31641 8.97135 3.77279 9.35547 3.4082C9.74609 3.03711 10.3223 2.85156 11.084 2.85156H13.7207C14.4824 2.85156 15.0553 3.03711 15.4395 3.4082C15.8301 3.77279 16.0254 4.31641 16.0254 5.03906V16.2109C16.0254 16.9336 15.8301 17.4772 15.4395 17.8418C15.0553 18.2064 14.4824 18.3887 13.7207 18.3887H11.084ZM11.3477 16.9141H13.4668C13.8379 16.9141 14.0983 16.8392 14.248 16.6895C14.3978 16.5462 14.4727 16.2923 14.4727 15.9277V5.32227C14.4727 4.95768 14.3978 4.70052 14.248 4.55078C14.0983 4.40104 13.8379 4.32617 13.4668 4.32617H11.3477C10.9701 4.32617 10.7064 4.40104 10.5566 4.55078C10.4069 4.70052 10.332 4.95768 10.332 5.32227V15.9277C10.332 16.2923 10.4069 16.5462 10.5566 16.6895C10.7064 16.8392 10.9701 16.9141 11.3477 16.9141ZM19.8633 18.3887C19.1081 18.3887 18.5352 18.2064 18.1445 17.8418C17.7604 17.4772 17.5684 16.9336 17.5684 16.2109V2.1875C17.5684 1.46484 17.7604 0.921224 18.1445 0.556641C18.5352 0.185547 19.1081 0 19.8633 0H22.5C23.2617 0 23.8379 0.185547 24.2285 0.556641C24.6191 0.921224 24.8145 1.46484 24.8145 2.1875V16.2109C24.8145 16.9336 24.6191 17.4772 24.2285 17.8418C23.8379 18.2064 23.2617 18.3887 22.5 18.3887H19.8633ZM20.127 16.9141H22.2461C22.6237 16.9141 22.8874 16.8392 23.0371 16.6895C23.1868 16.5462 23.2617 16.2923 23.2617 15.9277V2.4707C23.2617 2.09961 23.1868 1.84245 23.0371 1.69922C22.8874 1.54948 22.6237 1.47461 22.2461 1.47461H20.127C19.7559 1.47461 19.4954 1.54948 19.3457 1.69922C19.196 1.84245 19.1211 2.09961 19.1211 2.4707V15.9277C19.1211 16.2923 19.196 16.5462 19.3457 16.6895C19.4954 16.8392 19.7559 16.9141 20.127 16.9141Z"
        fill="currentColor" />
</svg>