<svg width="11" height="11" viewBox="0 0 11 11" fill="none" xmlns="http://www.w3.org/2000/svg">
    <path
        d="M4.65332 10.2051C4.52637 10.2051 4.41895 10.1693 4.33105 10.0977C4.24642 10.0293 4.18783 9.93164 4.15527 9.80469L3.90137 8.73047C3.80697 8.69792 3.71419 8.66374 3.62305 8.62793C3.5319 8.59212 3.44564 8.55469 3.36426 8.51562L2.42676 9.0918C2.31934 9.1569 2.20866 9.18457 2.09473 9.1748C1.98405 9.16504 1.88477 9.11621 1.79688 9.02832L1.17188 8.40332C1.08398 8.31543 1.03353 8.21289 1.02051 8.0957C1.01074 7.97852 1.04167 7.86784 1.11328 7.76367L1.68457 6.83105C1.64551 6.74642 1.60807 6.66016 1.57227 6.57227C1.53646 6.48438 1.50553 6.39648 1.47949 6.30859L0.395508 6.0498C0.268555 6.02051 0.170898 5.96354 0.102539 5.87891C0.0341797 5.79102 0 5.68359 0 5.55664V4.67285C0 4.54915 0.0341797 4.44499 0.102539 4.36035C0.170898 4.27246 0.268555 4.21387 0.395508 4.18457L1.46973 3.92578C1.49902 3.82487 1.53158 3.73047 1.56738 3.64258C1.60645 3.55469 1.64225 3.47168 1.6748 3.39355L1.10352 2.44629C1.03516 2.33887 1.00423 2.22982 1.01074 2.11914C1.02051 2.00846 1.07096 1.90918 1.16211 1.82129L1.79688 1.19141C1.88477 1.10352 1.98242 1.05306 2.08984 1.04004C2.19727 1.02702 2.30469 1.05306 2.41211 1.11816L3.35938 1.7041C3.44076 1.66178 3.52702 1.62272 3.61816 1.58691C3.71257 1.54785 3.80697 1.51204 3.90137 1.47949L4.15527 0.400391C4.18783 0.276693 4.24642 0.179036 4.33105 0.107422C4.41895 0.0358073 4.52637 0 4.65332 0H5.55176C5.67871 0 5.78451 0.0358073 5.86914 0.107422C5.95703 0.179036 6.01562 0.276693 6.04492 0.400391L6.29883 1.48926C6.39974 1.52181 6.49414 1.55599 6.58203 1.5918C6.67318 1.6276 6.75781 1.66667 6.83594 1.70898L7.79297 1.11816C7.89714 1.05306 8.0013 1.02865 8.10547 1.04492C8.21289 1.0612 8.31217 1.11003 8.40332 1.19141L9.04297 1.82129C9.13411 1.90918 9.18294 2.00846 9.18945 2.11914C9.19596 2.22982 9.16667 2.33887 9.10156 2.44629L8.52539 3.39355C8.55794 3.47168 8.59212 3.55469 8.62793 3.64258C8.66699 3.73047 8.7028 3.82487 8.73535 3.92578L9.80957 4.18457C9.93327 4.21387 10.0293 4.27246 10.0977 4.36035C10.1693 4.44499 10.2051 4.54915 10.2051 4.67285V5.55664C10.2051 5.68359 10.1693 5.79102 10.0977 5.87891C10.0293 5.96354 9.93327 6.02051 9.80957 6.0498L8.72559 6.30859C8.69629 6.39648 8.66374 6.48438 8.62793 6.57227C8.59538 6.66016 8.55794 6.74642 8.51562 6.83105L9.0918 7.76367C9.16341 7.86784 9.19271 7.97852 9.17969 8.0957C9.16992 8.21289 9.12109 8.31543 9.0332 8.40332L8.40332 9.02832C8.31543 9.11621 8.21452 9.16504 8.10059 9.1748C7.98991 9.18457 7.88249 9.1569 7.77832 9.0918L6.83594 8.51562C6.75456 8.55469 6.66829 8.59212 6.57715 8.62793C6.486 8.66374 6.39323 8.69792 6.29883 8.73047L6.04492 9.80469C6.01562 9.93164 5.95703 10.0293 5.86914 10.0977C5.78451 10.1693 5.67871 10.2051 5.55176 10.2051H4.65332ZM5.10254 6.82617C5.41829 6.82617 5.70638 6.74967 5.9668 6.59668C6.22721 6.44043 6.43555 6.2321 6.5918 5.97168C6.74805 5.70801 6.82617 5.41829 6.82617 5.10254C6.82617 4.78678 6.74805 4.4987 6.5918 4.23828C6.43555 3.97461 6.22721 3.76628 5.9668 3.61328C5.70638 3.45703 5.41829 3.37891 5.10254 3.37891C4.78353 3.37891 4.49382 3.45703 4.2334 3.61328C3.97298 3.76628 3.76465 3.97461 3.6084 4.23828C3.4554 4.4987 3.37891 4.78678 3.37891 5.10254C3.37891 5.41829 3.4554 5.70801 3.6084 5.97168C3.76465 6.2321 3.97298 6.44043 4.2334 6.59668C4.49382 6.74967 4.78353 6.82617 5.10254 6.82617Z"
        fill="currentColor" />
</svg>