<svg width="22" height="21" viewBox="0 0 22 21" fill="none" xmlns="http://www.w3.org/2000/svg">
    <path
        d="M6.00586 20.2051C5.66732 20.2051 5.40365 20.0911 5.21484 19.8633C5.03255 19.6419 4.94141 19.3424 4.94141 18.9648V16.4258H4.47266C3.5026 16.4258 2.68555 16.2533 2.02148 15.9082C1.35742 15.5566 0.852865 15.0488 0.507812 14.3848C0.169271 13.7207 0 12.9102 0 11.9531V4.47266C0 3.51562 0.169271 2.70508 0.507812 2.04102C0.852865 1.37695 1.35742 0.872396 2.02148 0.527344C2.68555 0.175781 3.5026 0 4.47266 0H17.0508C18.0208 0 18.8379 0.175781 19.502 0.527344C20.166 0.872396 20.6673 1.37695 21.0059 2.04102C21.3509 2.70508 21.5234 3.51562 21.5234 4.47266V11.9531C21.5234 12.9102 21.3509 13.7207 21.0059 14.3848C20.6673 15.0488 20.166 15.5566 19.502 15.9082C18.8379 16.2533 18.0208 16.4258 17.0508 16.4258H10.7812L7.41211 19.4238C7.11914 19.6842 6.87174 19.8796 6.66992 20.0098C6.4681 20.14 6.24674 20.2051 6.00586 20.2051ZM6.40625 18.418L9.53125 15.3125C9.71354 15.1237 9.88932 15 10.0586 14.9414C10.2279 14.8828 10.4492 14.8535 10.7227 14.8535H17.0508C18.0339 14.8535 18.763 14.6094 19.2383 14.1211C19.7135 13.6263 19.9512 12.9004 19.9512 11.9434V4.47266C19.9512 3.52214 19.7135 2.80273 19.2383 2.31445C18.763 1.81966 18.0339 1.57227 17.0508 1.57227H4.47266C3.48307 1.57227 2.75065 1.81966 2.27539 2.31445C1.80664 2.80273 1.57227 3.52214 1.57227 4.47266V11.9434C1.57227 12.9004 1.80664 13.6263 2.27539 14.1211C2.75065 14.6094 3.48307 14.8535 4.47266 14.8535H5.67383C5.94076 14.8535 6.12956 14.9089 6.24023 15.0195C6.35091 15.1302 6.40625 15.319 6.40625 15.5859V18.418Z"
        fill="currentColor" />
</svg>