<svg width="22" height="19" viewBox="0 0 22 19" fill="none" xmlns="http://www.w3.org/2000/svg">
    <path
        d="M0 16.5137V3.26172C0 3.17708 0.00651042 3.09896 0.0195312 3.02734C0.0325521 2.95573 0.0651042 2.8776 0.117188 2.79297C0.410156 2.29167 0.836589 1.82943 1.39648 1.40625C1.96289 0.983073 2.62695 0.644531 3.38867 0.390625C4.1569 0.130208 4.99023 0 5.88867 0C6.94987 0 7.91667 0.192057 8.78906 0.576172C9.66797 0.953776 10.3548 1.44531 10.8496 2.05078C11.3379 1.44531 12.0182 0.953776 12.8906 0.576172C13.7695 0.192057 14.7428 0 15.8105 0C16.7025 0 17.5293 0.130208 18.291 0.390625C19.0592 0.644531 19.7266 0.983073 20.293 1.40625C20.8594 1.82943 21.2858 2.29167 21.5723 2.79297C21.6243 2.8776 21.6569 2.95573 21.6699 3.02734C21.6829 3.09896 21.6895 3.17708 21.6895 3.26172V16.5137C21.6895 16.9173 21.5788 17.2038 21.3574 17.373C21.1361 17.5423 20.8822 17.627 20.5957 17.627C20.4264 17.627 20.2637 17.5846 20.1074 17.5C19.9512 17.4219 19.7819 17.3242 19.5996 17.207C19.0592 16.8424 18.4668 16.5527 17.8223 16.3379C17.1842 16.1296 16.5267 16.0286 15.8496 16.0352C15.14 16.0417 14.4466 16.1751 13.7695 16.4355C13.099 16.696 12.4902 17.0898 11.9434 17.6172C11.735 17.8125 11.543 17.946 11.3672 18.0176C11.1979 18.0957 11.0254 18.1348 10.8496 18.1348C10.6673 18.1348 10.4915 18.0957 10.3223 18.0176C10.153 17.946 9.96094 17.8125 9.74609 17.6172C9.19922 17.0898 8.58724 16.696 7.91016 16.4355C7.23958 16.1751 6.55273 16.0417 5.84961 16.0352C5.16602 16.0286 4.50195 16.1296 3.85742 16.3379C3.2194 16.5527 2.63021 16.8424 2.08984 17.207C1.90755 17.3242 1.73828 17.4219 1.58203 17.5C1.42578 17.5846 1.26628 17.627 1.10352 17.627C0.810547 17.627 0.553385 17.5423 0.332031 17.373C0.110677 17.2038 0 16.9173 0 16.5137ZM1.57227 15.6836C2.08659 15.3125 2.72135 15.0163 3.47656 14.7949C4.23177 14.5736 5.03581 14.4629 5.88867 14.4629C6.42904 14.4629 6.95638 14.5247 7.4707 14.6484C7.98503 14.7656 8.46029 14.9284 8.89648 15.1367C9.33919 15.3451 9.72656 15.5827 10.0586 15.8496V3.54492C9.71354 2.94596 9.16341 2.46745 8.4082 2.10938C7.65299 1.7513 6.81315 1.57227 5.88867 1.57227C5.2832 1.57227 4.70052 1.65365 4.14062 1.81641C3.58724 1.97266 3.08594 2.19401 2.63672 2.48047C2.1875 2.76693 1.83268 3.10221 1.57227 3.48633V15.6836ZM11.6309 15.8496C11.9629 15.5827 12.3503 15.3451 12.793 15.1367C13.2357 14.9284 13.7109 14.7656 14.2188 14.6484C14.7331 14.5247 15.2637 14.4629 15.8105 14.4629C16.6569 14.4629 17.4577 14.5736 18.2129 14.7949C18.9681 15.0163 19.6029 15.3125 20.1172 15.6836V3.48633C19.8568 3.10221 19.502 2.76693 19.0527 2.48047C18.6035 2.19401 18.099 1.97266 17.5391 1.81641C16.9857 1.65365 16.4095 1.57227 15.8105 1.57227C14.8796 1.57227 14.0365 1.7513 13.2812 2.10938C12.526 2.46745 11.9759 2.94596 11.6309 3.54492V15.8496Z"
        fill="currentColor" />
</svg>