<svg width="15" height="15" viewBox="0 0 15 15" fill="none" xmlns="http://www.w3.org/2000/svg">
    <path
        d="M0 5.84473C0 5.03906 0.151367 4.28467 0.454102 3.58154C0.756836 2.87354 1.17676 2.25098 1.71387 1.71387C2.25098 1.17676 2.87109 0.756836 3.57422 0.454102C4.28223 0.151367 5.03906 0 5.84473 0C6.65039 0 7.40479 0.151367 8.10791 0.454102C8.81592 0.756836 9.43848 1.17676 9.97559 1.71387C10.5127 2.25098 10.9326 2.87354 11.2354 3.58154C11.5381 4.28467 11.6895 5.03906 11.6895 5.84473C11.6895 6.51367 11.582 7.14844 11.3672 7.74902C11.1572 8.34961 10.8643 8.89404 10.4883 9.38232L14.0698 12.9858C14.1479 13.064 14.2065 13.1543 14.2456 13.2568C14.2896 13.3594 14.3115 13.4692 14.3115 13.5864C14.3115 13.7476 14.2749 13.894 14.2017 14.0259C14.1333 14.1577 14.0356 14.2603 13.9087 14.3335C13.7817 14.4116 13.6353 14.4507 13.4692 14.4507C13.3521 14.4507 13.2397 14.4287 13.1323 14.3848C13.0298 14.3457 12.9346 14.2847 12.8467 14.2017L9.24316 10.5908C8.76465 10.9326 8.2373 11.2012 7.66113 11.3965C7.08496 11.5918 6.47949 11.6895 5.84473 11.6895C5.03906 11.6895 4.28223 11.5381 3.57422 11.2354C2.87109 10.9326 2.25098 10.5127 1.71387 9.97559C1.17676 9.43848 0.756836 8.81836 0.454102 8.11523C0.151367 7.40723 0 6.65039 0 5.84473ZM1.25244 5.84473C1.25244 6.47949 1.36963 7.0752 1.604 7.63184C1.84326 8.18359 2.17285 8.66943 2.59277 9.08936C3.01758 9.50928 3.50586 9.83887 4.05762 10.0781C4.61426 10.3174 5.20996 10.437 5.84473 10.437C6.47949 10.437 7.07275 10.3174 7.62451 10.0781C8.18115 9.83887 8.66943 9.50928 9.08936 9.08936C9.50928 8.66943 9.83887 8.18359 10.0781 7.63184C10.3174 7.0752 10.437 6.47949 10.437 5.84473C10.437 5.20996 10.3174 4.6167 10.0781 4.06494C9.83887 3.5083 9.50928 3.02002 9.08936 2.6001C8.66943 2.17529 8.18115 1.8457 7.62451 1.61133C7.07275 1.37207 6.47949 1.25244 5.84473 1.25244C5.20996 1.25244 4.61426 1.37207 4.05762 1.61133C3.50586 1.8457 3.01758 2.17529 2.59277 2.6001C2.17285 3.02002 1.84326 3.5083 1.604 4.06494C1.36963 4.6167 1.25244 5.20996 1.25244 5.84473Z"
        fill="currentColor" />
</svg>