<svg width="24" height="18" viewBox="0 0 24 18" fill="none" xmlns="http://www.w3.org/2000/svg">
    <path
        d="M22.0215 14.4336C22.0215 15.3711 21.8001 16.0807 21.3574 16.5625C20.9147 17.0508 20.2507 17.2949 19.3652 17.2949H2.99805C2.26888 17.2949 1.72201 17.0703 1.35742 16.6211C0.992839 16.1784 0.794271 15.5143 0.761719 14.6289L4.48242 11.2695C4.68424 11.0807 4.88932 10.944 5.09766 10.8594C5.30599 10.7682 5.52083 10.7227 5.74219 10.7227C5.97005 10.7227 6.19466 10.7715 6.41602 10.8691C6.64388 10.9603 6.85872 11.097 7.06055 11.2793L8.86719 12.9102L13.2812 8.96484C13.5091 8.76953 13.7435 8.62305 13.9844 8.52539C14.2253 8.42773 14.4792 8.37891 14.7461 8.37891C15.013 8.37891 15.2702 8.43099 15.5176 8.53516C15.7715 8.63281 16.0059 8.78255 16.2207 8.98438L22.0215 14.4336ZM7.27539 9.08203C6.85221 9.08203 6.46484 8.98112 6.11328 8.7793C5.76823 8.57096 5.49154 8.29102 5.2832 7.93945C5.07487 7.58789 4.9707 7.20052 4.9707 6.77734C4.9707 6.36068 5.07487 5.97656 5.2832 5.625C5.49154 5.27344 5.76823 4.99349 6.11328 4.78516C6.46484 4.57682 6.85221 4.47266 7.27539 4.47266C7.69857 4.47266 8.08268 4.57682 8.42773 4.78516C8.77279 4.99349 9.04948 5.27344 9.25781 5.625C9.46615 5.97656 9.57031 6.36068 9.57031 6.77734C9.57031 7.20052 9.46615 7.58789 9.25781 7.93945C9.04948 8.29102 8.77279 8.57096 8.42773 8.7793C8.08268 8.98112 7.69857 9.08203 7.27539 9.08203ZM3.06641 17.9785C2.04427 17.9785 1.27604 17.7246 0.761719 17.2168C0.253906 16.7155 0 15.9635 0 14.9609V3.02734C0 2.01823 0.253906 1.26302 0.761719 0.761719C1.27604 0.253906 2.04427 0 3.06641 0H19.9609C20.9896 0 21.7578 0.253906 22.2656 0.761719C22.7734 1.26953 23.0273 2.02474 23.0273 3.02734V14.9609C23.0273 15.9635 22.7734 16.7155 22.2656 17.2168C21.7578 17.7246 20.9896 17.9785 19.9609 17.9785H3.06641ZM3.08594 16.4062H19.9414C20.4232 16.4062 20.7943 16.2793 21.0547 16.0254C21.3216 15.765 21.4551 15.3809 21.4551 14.873V3.11523C21.4551 2.60742 21.3216 2.22331 21.0547 1.96289C20.7943 1.70247 20.4232 1.57227 19.9414 1.57227H3.08594C2.59766 1.57227 2.22331 1.70247 1.96289 1.96289C1.70247 2.22331 1.57227 2.60742 1.57227 3.11523V14.873C1.57227 15.3809 1.70247 15.765 1.96289 16.0254C2.22331 16.2793 2.59766 16.4062 3.08594 16.4062Z"
        fill="currentColor" />
</svg>