<svg width="24" height="17" viewBox="0 0 24 17" fill="none" xmlns="http://www.w3.org/2000/svg">
    <path
        d="M13.2275 4.27002H12.0483V3.06885C12.0483 2.42432 11.875 1.93604 11.5283 1.604C11.1865 1.27197 10.7104 1.10596 10.1001 1.10596H3.12744C2.51709 1.10596 2.03857 1.27197 1.69189 1.604C1.3501 1.93604 1.1792 2.42432 1.1792 3.06885V7.32422C1.1792 7.97363 1.3501 8.46436 1.69189 8.79639C2.03857 9.12354 2.51709 9.28711 3.12744 9.28711H3.89648C4.05762 9.28711 4.19189 9.33594 4.29932 9.43359C4.40674 9.52637 4.46045 9.67529 4.46045 9.88037V11.7334L6.81885 9.62402C6.96045 9.49707 7.08984 9.40918 7.20703 9.36035C7.32422 9.31152 7.48291 9.28711 7.68311 9.28711H10.144V10.3857H7.63916L5.19287 12.4805C4.97314 12.6709 4.79004 12.8149 4.64355 12.9126C4.49707 13.0103 4.3335 13.0591 4.15283 13.0591C3.89893 13.0591 3.70361 12.9761 3.56689 12.8101C3.43018 12.644 3.36182 12.4219 3.36182 12.1436V10.3857H3.06152C2.44629 10.3857 1.90918 10.2661 1.4502 10.0269C0.991211 9.7876 0.634766 9.44336 0.380859 8.99414C0.126953 8.54492 0 8.00049 0 7.36084V3.03223C0 2.39258 0.126953 1.84814 0.380859 1.39893C0.634766 0.944824 0.991211 0.598145 1.4502 0.358887C1.90918 0.119629 2.44629 0 3.06152 0H10.166C10.8057 0 11.3525 0.119629 11.8066 0.358887C12.2656 0.598145 12.6172 0.944824 12.8613 1.39893C13.1055 1.84814 13.2275 2.39258 13.2275 3.03223V4.27002ZM4.04297 7.38281L5.84473 2.52686C5.98145 2.15576 6.23779 1.97021 6.61377 1.97021C6.99463 1.97021 7.25342 2.15576 7.39014 2.52686L9.19922 7.38281C9.24805 7.51465 9.25781 7.6416 9.22852 7.76367C9.2041 7.88086 9.14551 7.97607 9.05273 8.04932C8.96484 8.12256 8.84766 8.15918 8.70117 8.15918C8.43262 8.15918 8.24707 8.00537 8.14453 7.69775L7.69775 6.40869H5.54443L5.09766 7.69775C4.99512 8.00537 4.80957 8.15918 4.54102 8.15918C4.39941 8.15918 4.28223 8.12256 4.18945 8.04932C4.10156 7.97607 4.04297 7.88086 4.01367 7.76367C3.98438 7.6416 3.99414 7.51465 4.04297 7.38281ZM5.84473 5.50781H7.39014L6.59912 3.20068H6.63574L5.84473 5.50781ZM18.8965 16.7578C18.7158 16.7578 18.5522 16.709 18.4058 16.6113C18.2593 16.5137 18.0762 16.3696 17.8564 16.1792L15.4028 14.0845H12.8833C12.2437 14.0845 11.6943 13.9648 11.2354 13.7256C10.7764 13.4912 10.4248 13.1494 10.1807 12.7002C9.94141 12.2461 9.82178 11.6992 9.82178 11.0596V6.73096C9.82178 6.09131 9.94141 5.54688 10.1807 5.09766C10.4248 4.64355 10.7764 4.29688 11.2354 4.05762C11.6943 3.81836 12.2437 3.69873 12.8833 3.69873H19.9878C20.603 3.69873 21.1401 3.81836 21.5991 4.05762C22.0581 4.29688 22.4146 4.64355 22.6685 5.09766C22.9224 5.54688 23.0493 6.09131 23.0493 6.73096V11.0596C23.0493 11.6992 22.9224 12.2437 22.6685 12.6929C22.4146 13.1421 22.0581 13.4863 21.5991 13.7256C21.1401 13.9648 20.603 14.0845 19.9878 14.0845H19.6802V15.8423C19.6802 16.1206 19.6118 16.3428 19.4751 16.5088C19.3384 16.6748 19.1455 16.7578 18.8965 16.7578ZM14.0918 7.20703C13.9404 7.20703 13.8159 7.25342 13.7183 7.34619C13.6206 7.43896 13.5718 7.55371 13.5718 7.69043C13.5718 7.83203 13.6206 7.95166 13.7183 8.04932C13.8159 8.14209 13.9404 8.18848 14.0918 8.18848H14.6484C14.8535 8.92578 15.2148 9.58252 15.7324 10.1587C15.4834 10.3247 15.2148 10.4688 14.9268 10.5908C14.6387 10.708 14.3262 10.8081 13.9893 10.8911C13.8477 10.9204 13.7378 10.9961 13.6597 11.1182C13.5864 11.2402 13.5645 11.3745 13.5938 11.521C13.6328 11.6675 13.7183 11.7725 13.8501 11.8359C13.9819 11.8945 14.126 11.9019 14.2822 11.8579C14.6826 11.77 15.0659 11.6431 15.4321 11.4771C15.8032 11.3062 16.1572 11.0986 16.4941 10.8545C16.8115 11.0986 17.1509 11.3037 17.5122 11.4697C17.8784 11.6357 18.2471 11.7627 18.6182 11.8506C18.7988 11.8945 18.9551 11.8896 19.0869 11.8359C19.2236 11.7773 19.314 11.6724 19.3579 11.521C19.397 11.3647 19.3823 11.228 19.314 11.1108C19.2456 10.9937 19.1333 10.9204 18.9771 10.8911C18.645 10.813 18.335 10.7153 18.0469 10.5981C17.7588 10.4761 17.4854 10.3296 17.2266 10.1587C17.749 9.59229 18.1104 8.93555 18.3105 8.18848H18.8745C19.0259 8.18848 19.1504 8.14209 19.248 8.04932C19.3457 7.95166 19.3945 7.83203 19.3945 7.69043C19.3945 7.55371 19.3457 7.43896 19.248 7.34619C19.1504 7.25342 19.0259 7.20703 18.8745 7.20703H14.0918ZM16.5601 6.95068C16.6968 6.88232 16.7871 6.78223 16.8311 6.65039C16.8799 6.51855 16.8726 6.38672 16.8091 6.25488L16.4502 5.52246C16.3818 5.38086 16.2817 5.28564 16.1499 5.23682C16.0229 5.18311 15.8936 5.19287 15.7617 5.26611C15.6396 5.32471 15.5542 5.41992 15.5054 5.55176C15.4614 5.68359 15.4712 5.81787 15.5347 5.95459L15.8862 6.69434C15.9448 6.82617 16.04 6.9165 16.1719 6.96533C16.3037 7.00928 16.4331 7.00439 16.5601 6.95068ZM17.2852 8.18848C17.1191 8.67676 16.8555 9.12598 16.4941 9.53613C16.1279 9.13574 15.8569 8.68652 15.6812 8.18848H17.2852Z"
        fill="currentColor" />
</svg>