<svg width="16" height="18" viewBox="0 0 16 18" fill="none" xmlns="http://www.w3.org/2000/svg">
<path d="M0 13.1401C0 12.8634 0.0802409 12.5951 0.240723 12.335C0.401204 12.0749 0.600423 11.8203 0.838379 11.5713C1.08187 11.3223 1.32259 11.0732 1.56055 10.8242C1.74316 10.6361 1.88428 10.3898 1.98389 10.0854C2.08903 9.78109 2.1665 9.45736 2.21631 9.11426C2.26611 8.77116 2.30208 8.43913 2.32422 8.11816C2.34082 7.02799 2.45426 6.07064 2.66455 5.24609C2.87484 4.41602 3.2041 3.72428 3.65234 3.1709C4.10612 2.61751 4.70101 2.20801 5.43701 1.94238C5.57536 1.40007 5.85482 0.940755 6.27539 0.564453C6.7015 0.188151 7.21891 0 7.82764 0C8.44189 0 8.95931 0.188151 9.37988 0.564453C9.80599 0.940755 10.0882 1.40007 10.2266 1.94238C10.9626 2.20801 11.5547 2.61751 12.0029 3.1709C12.4512 3.72428 12.7804 4.41602 12.9907 5.24609C13.2065 6.07064 13.3228 7.02799 13.3394 8.11816C13.3615 8.43913 13.3975 8.77116 13.4473 9.11426C13.4971 9.45736 13.5718 9.78109 13.6714 10.0854C13.7765 10.3898 13.9204 10.6361 14.103 10.8242C14.341 11.0732 14.5789 11.3223 14.8169 11.5713C15.0604 11.8203 15.2624 12.0749 15.4229 12.335C15.5833 12.5951 15.6636 12.8634 15.6636 13.1401C15.6636 13.4445 15.5529 13.688 15.3315 13.8706C15.1102 14.0532 14.8031 14.1445 14.4102 14.1445H10.9072C10.8851 14.6813 10.7384 15.1766 10.4673 15.6304C10.2017 16.0897 9.84196 16.4577 9.38818 16.7344C8.93441 17.0111 8.41423 17.1494 7.82764 17.1494C7.24658 17.1494 6.72917 17.0083 6.27539 16.7261C5.82161 16.4494 5.45915 16.0841 5.18799 15.6304C4.92236 15.1766 4.77848 14.6813 4.75635 14.1445H1.25342C0.860514 14.1445 0.553385 14.0532 0.332031 13.8706C0.110677 13.688 0 13.4445 0 13.1401ZM1.61035 12.8911H14.0449V12.7915C13.9951 12.714 13.9121 12.6117 13.7959 12.4844C13.6852 12.3516 13.5552 12.2077 13.4058 12.0527C13.2619 11.8978 13.1152 11.7401 12.9658 11.5796C12.8164 11.4136 12.6864 11.2227 12.5757 11.0068C12.465 10.7855 12.3709 10.5365 12.2935 10.2598C12.2215 9.98307 12.1606 9.67594 12.1108 9.33838C12.0666 9.00081 12.0361 8.63005 12.0195 8.22607C11.9974 7.01969 11.8701 6.06234 11.6377 5.354C11.4108 4.64567 11.1064 4.11995 10.7246 3.77686C10.3483 3.42822 9.9222 3.1875 9.44629 3.05469C9.34668 3.03255 9.26644 2.99382 9.20557 2.93848C9.15023 2.8776 9.12256 2.7946 9.12256 2.68945C9.10596 2.25781 8.98145 1.90641 8.74902 1.63525C8.52214 1.35856 8.21501 1.22021 7.82764 1.22021C7.4458 1.22021 7.13867 1.35856 6.90625 1.63525C6.67936 1.90641 6.55762 2.25781 6.54102 2.68945C6.53548 2.7946 6.50505 2.8776 6.44971 2.93848C6.39437 2.99382 6.31413 3.03255 6.20898 3.05469C5.73307 3.1875 5.3042 3.42822 4.92236 3.77686C4.54606 4.11995 4.24447 4.64567 4.01758 5.354C3.79069 6.06234 3.66618 7.01969 3.64404 8.22607C3.62191 8.63005 3.5887 9.00081 3.54443 9.33838C3.50016 9.67594 3.43929 9.98307 3.36182 10.2598C3.28434 10.5365 3.19027 10.7855 3.07959 11.0068C2.96891 11.2227 2.83887 11.4136 2.68945 11.5796C2.54557 11.7401 2.39893 11.8978 2.24951 12.0527C2.10563 12.2077 1.97559 12.3516 1.85938 12.4844C1.74316 12.6117 1.66016 12.714 1.61035 12.7915V12.8911ZM6.05127 14.1445C6.07894 14.709 6.25602 15.1545 6.58252 15.481C6.91455 15.813 7.32959 15.979 7.82764 15.979C8.33122 15.979 8.74626 15.813 9.07275 15.481C9.39925 15.1545 9.5791 14.709 9.6123 14.1445H6.05127Z" fill="#121212"/>
</svg>
