<svg width="13" height="16" viewBox="0 0 13 16" fill="none" xmlns="http://www.w3.org/2000/svg">
<path d="M2.2998 15.6665C1.5332 15.6665 0.957031 15.4761 0.571289 15.0952C0.19043 14.7192 0 14.1528 0 13.396V6.16699C0 5.41016 0.19043 4.84375 0.571289 4.46777C0.957031 4.08691 1.5332 3.89648 2.2998 3.89648H4.54102V5.07568H2.31445C1.94824 5.07568 1.66748 5.17334 1.47217 5.36865C1.27686 5.55908 1.1792 5.84473 1.1792 6.22559V13.3374C1.1792 13.7183 1.27686 14.0039 1.47217 14.1943C1.66748 14.3896 1.94824 14.4873 2.31445 14.4873H10.6787C11.04 14.4873 11.3208 14.3896 11.521 14.1943C11.7212 14.0039 11.8213 13.7183 11.8213 13.3374V6.22559C11.8213 5.84473 11.7212 5.55908 11.521 5.36865C11.3208 5.17334 11.04 5.07568 10.6787 5.07568H8.45215V3.89648H10.7007C11.4673 3.89648 12.041 4.08691 12.4219 4.46777C12.8076 4.84375 13.0005 5.41016 13.0005 6.16699V13.396C13.0005 14.1528 12.8076 14.7192 12.4219 15.0952C12.041 15.4761 11.4673 15.6665 10.7007 15.6665H2.2998ZM6.49658 0C6.65771 0 6.79443 0.0561523 6.90674 0.168457C7.02393 0.280762 7.08252 0.412598 7.08252 0.563965V8.0127L7.03857 9.11133L7.44873 8.6792L8.57666 7.4707C8.6792 7.35352 8.81104 7.29492 8.97217 7.29492C9.12354 7.29492 9.25049 7.34375 9.35303 7.44141C9.45557 7.53906 9.50684 7.66113 9.50684 7.80762C9.50684 7.94922 9.45068 8.07861 9.33838 8.1958L6.92139 10.5249C6.84814 10.5981 6.77734 10.6494 6.70898 10.6787C6.64551 10.7031 6.57471 10.7153 6.49658 10.7153C6.42334 10.7153 6.35254 10.7031 6.28418 10.6787C6.2207 10.6494 6.1499 10.5981 6.07178 10.5249L3.66211 8.1958C3.54492 8.07861 3.48633 7.94922 3.48633 7.80762C3.48633 7.66113 3.53516 7.53906 3.63281 7.44141C3.73535 7.34375 3.8623 7.29492 4.01367 7.29492C4.17969 7.29492 4.31396 7.35352 4.4165 7.4707L5.55176 8.6792L5.96191 9.11133L5.91797 8.0127V0.563965C5.91797 0.412598 5.97412 0.280762 6.08643 0.168457C6.20361 0.0561523 6.34033 0 6.49658 0Z" fill="#121212"/>
</svg>
