<svg width="13" height="12" viewBox="0 0 13 12" fill="none" xmlns="http://www.w3.org/2000/svg">
<path d="M1.75372 11.6154C1.39737 11.6154 1.08707 11.5354 0.822809 11.3752C0.562555 11.219 0.360358 11.0068 0.216217 10.7386C0.0720764 10.4743 6.12251e-06 10.182 6.12251e-06 9.86172C6.12251e-06 9.55342 0.0800842 9.25913 0.240241 8.97886L4.88277 0.882959C5.04693 0.590674 5.26314 0.370459 5.5314 0.222314C5.80367 0.0741698 6.08995 9.74992e-05 6.39024 9.74992e-05C6.68653 9.74992e-05 6.96881 0.0741698 7.23707 0.222314C7.50533 0.370459 7.72354 0.590674 7.89171 0.882959L12.5342 8.97886C12.6143 9.11899 12.6744 9.26514 12.7144 9.41729C12.7544 9.56543 12.7745 9.71357 12.7745 9.86172C12.7745 10.182 12.7024 10.4743 12.5583 10.7386C12.4141 11.0068 12.2099 11.219 11.9457 11.3752C11.6854 11.5354 11.3771 11.6154 11.0208 11.6154H1.75372ZM1.92789 10.3422H10.8406C11.0128 10.3422 11.1489 10.2841 11.249 10.168C11.3531 10.0519 11.4051 9.91777 11.4051 9.76562C11.4051 9.66152 11.3791 9.55942 11.3271 9.45933L6.8587 1.63369C6.81065 1.5416 6.74258 1.47554 6.6545 1.4355C6.57042 1.39546 6.48233 1.37544 6.39024 1.37544C6.29815 1.37544 6.20806 1.39546 6.11998 1.4355C6.03189 1.47554 5.96182 1.5416 5.90977 1.63369L1.44742 9.44731C1.41939 9.49937 1.39937 9.55342 1.38736 9.60947C1.37935 9.66553 1.37535 9.71758 1.37535 9.76562C1.37535 9.91777 1.4254 10.0519 1.52549 10.168C1.62559 10.2841 1.75972 10.3422 1.92789 10.3422ZM6.39625 7.37529C6.01988 7.37529 5.82369 7.18711 5.80767 6.81074L5.72359 4.07207C5.71558 3.88389 5.77364 3.72974 5.89776 3.60962C6.02188 3.4855 6.18604 3.42344 6.39024 3.42344C6.59044 3.42344 6.75259 3.4855 6.87672 3.60962C7.00484 3.72974 7.0649 3.88589 7.05689 4.07808L6.9668 6.80474C6.95079 7.18511 6.7606 7.37529 6.39625 7.37529ZM6.39625 9.39326C6.18804 9.39326 6.00987 9.3292 5.86172 9.20107C5.71758 9.07295 5.64551 8.91079 5.64551 8.7146C5.64551 8.5144 5.71758 8.35024 5.86172 8.22212C6.00987 8.08999 6.18804 8.02393 6.39625 8.02393C6.60445 8.02393 6.77862 8.08799 6.91876 8.21611C7.0629 8.34424 7.13497 8.5104 7.13497 8.7146C7.13497 8.91479 7.0629 9.07896 6.91876 9.20708C6.77462 9.3312 6.60045 9.39326 6.39625 9.39326Z" fill="#E7000B"/>
</svg>
