<svg width="17" height="11" viewBox="0 0 17 11" fill="none" xmlns="http://www.w3.org/2000/svg">
<path d="M8.00977 0.46875C8.79492 0.46875 9.53711 0.564453 10.2363 0.755859C10.9395 0.943359 11.5879 1.19336 12.1816 1.50586C12.7793 1.81445 13.3125 2.15625 13.7812 2.53125C14.2539 2.90625 14.6562 3.2832 14.9883 3.66211C15.3203 4.03711 15.5742 4.38672 15.75 4.71094C15.9258 5.03125 16.0137 5.29102 16.0137 5.49023C16.0137 5.71289 15.9043 6.01172 15.6855 6.38672C15.4668 6.76172 15.1504 7.16602 14.7363 7.59961C14.3262 8.0293 13.834 8.43945 13.2598 8.83008L12.5508 8.12695C12.9219 7.88086 13.2578 7.62695 13.5586 7.36523C13.8594 7.10352 14.1152 6.85156 14.3262 6.60938C14.541 6.36719 14.7051 6.14844 14.8184 5.95312C14.9316 5.75781 14.9883 5.60352 14.9883 5.49023C14.9883 5.37305 14.9043 5.19336 14.7363 4.95117C14.5723 4.70898 14.3379 4.43359 14.0332 4.125C13.7285 3.8125 13.3633 3.49805 12.9375 3.18164C12.5156 2.86523 12.0449 2.57227 11.5254 2.30273C11.0059 2.0293 10.4492 1.81055 9.85547 1.64648C9.26562 1.47852 8.65039 1.39453 8.00977 1.39453C7.67383 1.39453 7.3457 1.42188 7.02539 1.47656C6.70898 1.52734 6.4043 1.59766 6.11133 1.6875L5.33203 0.908203C5.74219 0.775391 6.16992 0.669922 6.61523 0.591797C7.06445 0.509766 7.5293 0.46875 8.00977 0.46875ZM8.00977 10.5117C7.22852 10.5117 6.48828 10.416 5.78906 10.2246C5.09375 10.0371 4.44727 9.78906 3.84961 9.48047C3.25586 9.16797 2.72266 8.82422 2.25 8.44922C1.77734 8.07422 1.37305 7.69922 1.03711 7.32422C0.701172 6.94531 0.443359 6.5957 0.263672 6.27539C0.0878906 5.95117 0 5.68945 0 5.49023C0 5.31836 0.0664062 5.10156 0.199219 4.83984C0.332031 4.57422 0.525391 4.2832 0.779297 3.9668C1.0332 3.65039 1.33984 3.32812 1.69922 3C2.0625 2.66797 2.47266 2.35156 2.92969 2.05078L3.65625 2.77734C3.25391 3.03516 2.89062 3.30078 2.56641 3.57422C2.24609 3.84766 1.9707 4.11328 1.74023 4.37109C1.50977 4.625 1.33203 4.85156 1.20703 5.05078C1.08594 5.24609 1.02539 5.39258 1.02539 5.49023C1.02539 5.62695 1.10742 5.82227 1.27148 6.07617C1.43555 6.33008 1.66992 6.61133 1.97461 6.91992C2.2832 7.22461 2.64844 7.5332 3.07031 7.8457C3.49219 8.1582 3.96289 8.44727 4.48242 8.71289C5.00195 8.97461 5.55859 9.18555 6.15234 9.3457C6.74609 9.50586 7.36523 9.58594 8.00977 9.58594C8.38086 9.58594 8.74414 9.55664 9.09961 9.49805C9.45898 9.43945 9.80469 9.35742 10.1367 9.25195L10.8984 10.0195C10.4609 10.1719 10 10.291 9.51562 10.377C9.03125 10.4668 8.5293 10.5117 8.00977 10.5117ZM8.00977 2.20898C8.46289 2.20898 8.88867 2.29297 9.28711 2.46094C9.68555 2.62891 10.0352 2.86328 10.3359 3.16406C10.6367 3.46094 10.8711 3.80859 11.0391 4.20703C11.2109 4.60547 11.2969 5.0332 11.2969 5.49023C11.2969 5.69336 11.2754 5.89062 11.2324 6.08203C11.1934 6.27344 11.1367 6.45898 11.0625 6.63867L6.86133 2.4375C7.03711 2.36719 7.2207 2.3125 7.41211 2.27344C7.60742 2.23047 7.80664 2.20898 8.00977 2.20898ZM8.00977 8.77148C7.54883 8.77148 7.11914 8.68555 6.7207 8.51367C6.32227 8.3418 5.97266 8.10547 5.67188 7.80469C5.37109 7.5 5.13477 7.15039 4.96289 6.75586C4.79492 6.35742 4.71094 5.93555 4.71094 5.49023C4.71094 5.24805 4.73633 5.01367 4.78711 4.78711C4.8418 4.55664 4.91797 4.33984 5.01562 4.13672L9.35156 8.4668C9.14844 8.56445 8.93359 8.64062 8.70703 8.69531C8.48047 8.74609 8.24805 8.77148 8.00977 8.77148ZM12.5859 10.5645L2.7832 0.773438C2.69727 0.6875 2.6543 0.582031 2.6543 0.457031C2.6543 0.328125 2.69727 0.220703 2.7832 0.134766C2.87305 0.0449219 2.98047 0.00195312 3.10547 0.00585938C3.23438 0.00585938 3.3418 0.0488281 3.42773 0.134766L13.2246 9.92578C13.3145 10.0156 13.3613 10.1191 13.3652 10.2363C13.3691 10.3574 13.3223 10.4668 13.2246 10.5645C13.1348 10.6621 13.0273 10.709 12.9023 10.7051C12.7812 10.7012 12.6758 10.6543 12.5859 10.5645Z" fill="#717182"/>
</svg>
