<svg width="17" height="17" viewBox="0 0 17 17" fill="none" xmlns="http://www.w3.org/2000/svg">
<path d="M8.4668 16.4688C7.89128 16.4688 7.34896 16.2695 6.83984 15.8711C6.33626 15.4727 5.89079 14.9137 5.50342 14.1943C5.12158 13.4749 4.81999 12.631 4.59863 11.6626C4.38281 10.6886 4.2749 9.62891 4.2749 8.4834C4.2749 7.33789 4.38281 6.27816 4.59863 5.3042C4.81999 4.32471 5.12158 3.47526 5.50342 2.75586C5.88525 2.03092 6.32796 1.46924 6.83154 1.0708C7.34066 0.672363 7.88574 0.473145 8.4668 0.473145C9.04785 0.473145 9.59017 0.672363 10.0938 1.0708C10.6029 1.46924 11.0483 2.03092 11.4302 2.75586C11.8175 3.47526 12.1191 4.32471 12.335 5.3042C12.5508 6.27816 12.6587 7.33789 12.6587 8.4834C12.6587 9.62891 12.548 10.6886 12.3267 11.6626C12.1108 12.631 11.8092 13.4749 11.4219 14.1943C11.04 14.9137 10.5946 15.4727 10.0854 15.8711C9.58187 16.2695 9.04232 16.4688 8.4668 16.4688ZM8.4668 1.47754C8.06283 1.47754 7.67546 1.66569 7.30469 2.04199C6.93392 2.41276 6.60465 2.92188 6.31689 3.56934C6.02913 4.2168 5.80225 4.96387 5.63623 5.81055C5.47021 6.65169 5.38721 7.54264 5.38721 8.4834C5.38721 9.41309 5.47021 10.2957 5.63623 11.1313C5.80225 11.967 6.02913 12.7113 6.31689 13.3643C6.60465 14.0117 6.93392 14.5208 7.30469 14.8916C7.67546 15.2679 8.06283 15.4561 8.4668 15.4561C8.87077 15.4561 9.25814 15.2679 9.62891 14.8916C9.99967 14.5208 10.3289 14.0117 10.6167 13.3643C10.9045 12.7113 11.1313 11.967 11.2974 11.1313C11.4634 10.2957 11.5464 9.41309 11.5464 8.4834C11.5464 7.54264 11.4634 6.65169 11.2974 5.81055C11.1313 4.96387 10.9045 4.2168 10.6167 3.56934C10.3289 2.92188 9.99967 2.41276 9.62891 2.04199C9.25814 1.66569 8.87077 1.47754 8.4668 1.47754ZM7.92725 0.589355H9.01465V16.311H7.92725V0.589355ZM8.4668 11.5879C9.31901 11.5879 10.127 11.6598 10.8906 11.8037C11.6543 11.9421 12.3405 12.144 12.9492 12.4097C13.5635 12.6698 14.0643 12.9769 14.4517 13.3311L13.6133 14.02C13.248 13.7323 12.8081 13.4888 12.2935 13.2896C11.7843 13.0848 11.2061 12.9326 10.5586 12.833C9.91667 12.7279 9.2194 12.6753 8.4668 12.6753C7.71419 12.6753 7.01416 12.7279 6.3667 12.833C5.72477 12.9326 5.14648 13.0848 4.63184 13.2896C4.12272 13.4888 3.68555 13.7323 3.32031 14.02L2.48193 13.3311C2.8693 12.9769 3.36735 12.6698 3.97607 12.4097C4.59033 12.144 5.2793 11.9421 6.04297 11.8037C6.80664 11.6598 7.61458 11.5879 8.4668 11.5879ZM16.1284 7.91895V9.00635H0.805176V7.91895H16.1284ZM8.4668 5.38721C7.61458 5.38721 6.80664 5.31803 6.04297 5.17969C5.2793 5.03581 4.59033 4.83382 3.97607 4.57373C3.36735 4.30811 2.8693 3.99821 2.48193 3.64404L3.32031 2.95508C3.68555 3.24284 4.12272 3.4891 4.63184 3.69385C5.14648 3.89307 5.72477 4.04525 6.3667 4.15039C7.01416 4.25 7.71419 4.2998 8.4668 4.2998C9.2194 4.2998 9.91667 4.25 10.5586 4.15039C11.2061 4.04525 11.7843 3.89307 12.2935 3.69385C12.8081 3.4891 13.248 3.24284 13.6133 2.95508L14.4517 3.64404C14.0643 3.99821 13.5635 4.30811 12.9492 4.57373C12.3405 4.83382 11.6543 5.03581 10.8906 5.17969C10.127 5.31803 9.31901 5.38721 8.4668 5.38721ZM8.4668 16.9336C7.29915 16.9336 6.20345 16.7122 5.17969 16.2695C4.15592 15.8324 3.25667 15.2264 2.48193 14.4517C1.70719 13.6769 1.09847 12.7777 0.655762 11.7539C0.218587 10.7301 0 9.63444 0 8.4668C0 7.29915 0.218587 6.20345 0.655762 5.17969C1.09847 4.15592 1.70719 3.25667 2.48193 2.48193C3.25667 1.70166 4.15592 1.09294 5.17969 0.655762C6.20345 0.218587 7.29915 0 8.4668 0C9.63444 0 10.7301 0.218587 11.7539 0.655762C12.7777 1.09294 13.6769 1.70166 14.4517 2.48193C15.2264 3.25667 15.8324 4.15592 16.2695 5.17969C16.7122 6.20345 16.9336 7.29915 16.9336 8.4668C16.9336 9.63444 16.7122 10.7301 16.2695 11.7539C15.8324 12.7777 15.2264 13.6769 14.4517 14.4517C13.6769 15.2264 12.7777 15.8324 11.7539 16.2695C10.7301 16.7122 9.63444 16.9336 8.4668 16.9336ZM8.4668 15.8047C9.47949 15.8047 10.4285 15.6138 11.314 15.2319C12.1994 14.8501 12.9797 14.3244 13.6548 13.6548C14.3299 12.9797 14.8556 12.1994 15.2319 11.314C15.6138 10.4285 15.8047 9.47949 15.8047 8.4668C15.8047 7.4541 15.6138 6.50505 15.2319 5.61963C14.8556 4.72868 14.3299 3.9484 13.6548 3.27881C12.9797 2.60368 12.1994 2.07796 11.314 1.70166C10.4285 1.31982 9.47949 1.12891 8.4668 1.12891C7.4541 1.12891 6.50505 1.31982 5.61963 1.70166C4.73421 2.07796 3.95394 2.60368 3.27881 3.27881C2.60368 3.9484 2.0752 4.72868 1.69336 5.61963C1.31706 6.50505 1.12891 7.4541 1.12891 8.4668C1.12891 9.47949 1.31706 10.4285 1.69336 11.314C2.0752 12.1994 2.60368 12.9797 3.27881 13.6548C3.95394 14.3244 4.73421 14.8501 5.61963 15.2319C6.50505 15.6138 7.4541 15.8047 8.4668 15.8047Z" fill="#121212"/>
</svg>
