<svg width="9" height="13" viewBox="0 0 9 13" fill="none" xmlns="http://www.w3.org/2000/svg">
<path d="M1.42822 12.4478C0.962728 12.4478 0.607259 12.3208 0.361816 12.0669C0.120605 11.8172 0 11.4406 0 10.937V6.56348C0 6.06413 0.120605 5.68962 0.361816 5.43994C0.607259 5.18604 0.962728 5.05908 1.42822 5.05908H7.23633C7.70182 5.05908 8.05518 5.18604 8.29639 5.43994C8.54183 5.68962 8.66455 6.06413 8.66455 6.56348V10.937C8.66455 11.4406 8.54183 11.8172 8.29639 12.0669C8.05518 12.3208 7.70182 12.4478 7.23633 12.4478H1.42822ZM1.45996 11.4893H7.20459C7.34424 11.4893 7.45003 11.4469 7.52197 11.3623C7.59814 11.2819 7.63623 11.1634 7.63623 11.0068V6.49365C7.63623 6.33708 7.59814 6.21859 7.52197 6.13818C7.45003 6.05778 7.34424 6.01758 7.20459 6.01758H1.45996C1.32454 6.01758 1.21875 6.05778 1.14258 6.13818C1.06641 6.21859 1.02832 6.33708 1.02832 6.49365V11.0068C1.02832 11.1634 1.06641 11.2819 1.14258 11.3623C1.21875 11.4469 1.32454 11.4893 1.45996 11.4893ZM1.11084 5.54785V3.54199C1.11084 2.74642 1.26318 2.08626 1.56787 1.56152C1.87679 1.03678 2.27669 0.645345 2.76758 0.387207C3.25846 0.129069 3.77897 0 4.3291 0C4.88346 0 5.40609 0.129069 5.89697 0.387207C6.38786 0.645345 6.78564 1.03678 7.09033 1.56152C7.39925 2.08626 7.55371 2.74642 7.55371 3.54199V5.54785H6.55078V3.40869C6.55078 2.87549 6.4471 2.42692 6.23975 2.06299C6.03662 1.69906 5.76579 1.42399 5.42725 1.23779C5.09294 1.0516 4.72689 0.958496 4.3291 0.958496C3.93555 0.958496 3.5695 1.0516 3.23096 1.23779C2.89665 1.42399 2.62793 1.69906 2.4248 2.06299C2.22168 2.42692 2.12012 2.87549 2.12012 3.40869V5.54785H1.11084Z" fill="#121212"/>
</svg>
