<svg width="12" height="21" viewBox="0 0 12 21" fill="none" xmlns="http://www.w3.org/2000/svg">
<path d="M4.97217 20.4531L3.61914 19.2661C3.4974 19.161 3.41162 19.0337 3.36182 18.8843C3.31755 18.7404 3.29541 18.5993 3.29541 18.4609V10.625C2.62028 10.3262 2.03646 9.91943 1.54395 9.40479C1.05143 8.89014 0.669596 8.30355 0.398438 7.64502C0.132812 6.98096 0 6.27816 0 5.53662C0 4.76742 0.141113 4.04801 0.42334 3.37842C0.7111 2.70882 1.10954 2.12223 1.61865 1.61865C2.12777 1.10954 2.71712 0.713867 3.38672 0.431641C4.05632 0.14388 4.77848 0 5.55322 0C6.31689 0 7.03353 0.14388 7.70312 0.431641C8.37826 0.713867 8.96761 1.10954 9.47119 1.61865C9.98031 2.12777 10.3787 2.71712 10.6665 3.38672C10.9543 4.05632 11.0981 4.77295 11.0981 5.53662C11.0981 6.63786 10.7882 7.63672 10.1685 8.5332C9.54867 9.42969 8.66878 10.1519 7.52881 10.6997L9.26367 12.4429C9.42415 12.6089 9.50439 12.8026 9.50439 13.0239C9.50993 13.2453 9.43245 13.4362 9.27197 13.5967L7.396 15.4644L8.68262 16.7427C8.8431 16.9032 8.92334 17.0941 8.92334 17.3154C8.92887 17.5368 8.8514 17.7305 8.69092 17.8965L6.12598 20.4614C5.95996 20.6219 5.76904 20.6966 5.55322 20.6855C5.34294 20.6745 5.14925 20.597 4.97217 20.4531ZM5.55322 19.1416L7.36279 17.3071L6.18408 16.145V14.7671L7.94385 13.0322L6.31689 11.397V9.72021C7.00863 9.5542 7.61182 9.26644 8.12646 8.85693C8.64665 8.44743 9.04785 7.95768 9.33008 7.3877C9.61784 6.81217 9.76172 6.19515 9.76172 5.53662C9.76172 4.76188 9.57357 4.05632 9.19727 3.41992C8.82096 2.78353 8.31185 2.27718 7.66992 1.90088C7.03353 1.52458 6.32796 1.33643 5.55322 1.33643C4.96663 1.33643 4.41602 1.4471 3.90137 1.66846C3.39225 1.88428 2.94401 2.18587 2.55664 2.57324C2.1748 2.95508 1.87321 3.40055 1.65186 3.90967C1.43604 4.41325 1.32812 4.95557 1.32812 5.53662C1.32812 6.20622 1.46647 6.82601 1.74316 7.396C2.02539 7.96598 2.41553 8.4502 2.91357 8.84863C3.41162 9.24707 3.98438 9.51823 4.63184 9.66211V18.2285L5.55322 19.1416ZM5.55322 5.2876C5.17692 5.2876 4.85872 5.15755 4.59863 4.89746C4.33854 4.63184 4.2085 4.31087 4.2085 3.93457C4.2085 3.5638 4.33854 3.24837 4.59863 2.98828C4.85872 2.72819 5.17692 2.59814 5.55322 2.59814C5.92399 2.59814 6.23942 2.72819 6.49951 2.98828C6.76514 3.24837 6.89795 3.5638 6.89795 3.93457C6.89795 4.31087 6.76514 4.63184 6.49951 4.89746C6.23942 5.15755 5.92399 5.2876 5.55322 5.2876Z" fill="#121212"/>
</svg>
