<svg width="14" height="17" viewBox="0 0 14 17" fill="none" xmlns="http://www.w3.org/2000/svg">
<path d="M6.89795 16.7676C6.83154 16.7676 6.74854 16.7537 6.64893 16.7261C6.54932 16.6984 6.44694 16.6569 6.3418 16.6016C5.16309 15.9375 4.16699 15.3481 3.35352 14.8335C2.54557 14.3188 1.89535 13.8208 1.40283 13.3394C0.910319 12.8579 0.553385 12.3377 0.332031 11.7788C0.110677 11.2199 0 10.5614 0 9.80322V3.45312C0 3.01595 0.0913086 2.70329 0.273926 2.51514C0.462077 2.32145 0.730469 2.15267 1.0791 2.00879C1.27279 1.92578 1.54118 1.81787 1.88428 1.68506C2.22738 1.55225 2.60645 1.40837 3.02148 1.25342C3.43652 1.09847 3.8488 0.946289 4.2583 0.796875C4.67334 0.641927 5.05241 0.506348 5.39551 0.390137C5.73861 0.268392 6.00977 0.17985 6.20898 0.124512C6.31966 0.0968424 6.43311 0.0691732 6.54932 0.0415039C6.66553 0.0138346 6.78174 0 6.89795 0C7.01416 0 7.13037 0.0138346 7.24658 0.0415039C7.36833 0.0636393 7.48454 0.0913086 7.59521 0.124512C7.7889 0.190918 8.05729 0.284993 8.40039 0.406738C8.74349 0.528483 9.12256 0.664062 9.5376 0.813477C9.95264 0.962891 10.3649 1.11507 10.7744 1.27002C11.1895 1.41943 11.5685 1.56055 11.9116 1.69336C12.2547 1.82064 12.5231 1.92578 12.7168 2.00879C13.071 2.1582 13.3394 2.32699 13.522 2.51514C13.7046 2.70329 13.7959 3.01595 13.7959 3.45312V9.80322C13.7959 10.5614 13.6852 11.2227 13.4639 11.7871C13.248 12.346 12.8939 12.8662 12.4014 13.3477C11.9089 13.8291 11.2559 14.3244 10.4424 14.8335C9.63444 15.3481 8.63835 15.9375 7.4541 16.6016C7.34896 16.6569 7.24658 16.6984 7.14697 16.7261C7.04736 16.7537 6.96436 16.7676 6.89795 16.7676ZM6.89795 15.2651C6.96436 15.2651 7.0363 15.2485 7.11377 15.2153C7.19124 15.1877 7.29085 15.1379 7.4126 15.0659C8.36995 14.4849 9.17236 13.984 9.81982 13.5635C10.4728 13.1429 10.993 12.7445 11.3804 12.3682C11.7733 11.9919 12.0527 11.5796 12.2188 11.1313C12.3903 10.6831 12.4761 10.138 12.4761 9.49609V3.71045C12.4761 3.5721 12.4567 3.46696 12.418 3.39502C12.3848 3.32308 12.3128 3.26774 12.2021 3.229C11.9421 3.14046 11.6432 3.03809 11.3057 2.92188C10.9736 2.80013 10.6222 2.67285 10.2515 2.54004C9.88623 2.40723 9.51823 2.27441 9.14746 2.1416C8.78223 2.00326 8.43359 1.87321 8.10156 1.75146C7.76953 1.62419 7.479 1.51074 7.22998 1.41113C7.16357 1.38346 7.1027 1.3641 7.04736 1.35303C6.99202 1.34196 6.94222 1.33643 6.89795 1.33643C6.85368 1.33643 6.80387 1.34196 6.74854 1.35303C6.6932 1.3641 6.63232 1.38346 6.56592 1.41113C6.31689 1.51074 6.02637 1.62142 5.69434 1.74316C5.3623 1.86491 5.0109 1.99219 4.64014 2.125C4.26937 2.25228 3.8986 2.38232 3.52783 2.51514C3.15706 2.64795 2.80566 2.77523 2.47363 2.89697C2.1416 3.01872 1.85107 3.12939 1.60205 3.229C1.48584 3.27327 1.40837 3.33138 1.36963 3.40332C1.33643 3.46973 1.31982 3.5721 1.31982 3.71045V9.49609C1.31982 10.138 1.4056 10.6831 1.57715 11.1313C1.7487 11.5796 2.02816 11.9946 2.41553 12.3765C2.8029 12.7528 3.32031 13.1512 3.96777 13.5718C4.62077 13.9868 5.42594 14.4849 6.3833 15.0659C6.50505 15.1379 6.60465 15.1877 6.68213 15.2153C6.7596 15.2485 6.83154 15.2651 6.89795 15.2651Z" fill="#121212"/>
</svg>
