<svg width="16" height="17" viewBox="0 0 16 17" fill="none" xmlns="http://www.w3.org/2000/svg">
<path d="M6.40137 6.78955C5.8252 6.78955 5.29541 6.63574 4.81201 6.32812C4.3335 6.01562 3.9502 5.60059 3.66211 5.08301C3.37891 4.56543 3.2373 3.9917 3.2373 3.36182C3.2373 2.7417 3.37891 2.17773 3.66211 1.66992C3.9502 1.16211 4.3335 0.756836 4.81201 0.454102C5.29541 0.151367 5.8252 0 6.40137 0C6.9873 0 7.51953 0.148926 7.99805 0.446777C8.47656 0.744629 8.85742 1.14746 9.14062 1.65527C9.42383 2.1582 9.56543 2.72217 9.56543 3.34717C9.56543 3.97705 9.42139 4.55322 9.1333 5.07568C8.8501 5.59326 8.46924 6.0083 7.99072 6.3208C7.51221 6.6333 6.98242 6.78955 6.40137 6.78955ZM6.40137 5.68359C6.7627 5.68359 7.09229 5.57861 7.39014 5.36865C7.69287 5.15869 7.93457 4.87793 8.11523 4.52637C8.2959 4.1748 8.38623 3.78174 8.38623 3.34717C8.38623 2.92236 8.2959 2.5415 8.11523 2.20459C7.93945 1.86279 7.7002 1.59424 7.39746 1.39893C7.09961 1.20361 6.76758 1.10596 6.40137 1.10596C6.04004 1.10596 5.70801 1.20605 5.40527 1.40625C5.10742 1.60645 4.86816 1.87744 4.6875 2.21924C4.50684 2.55615 4.4165 2.93701 4.4165 3.36182C4.4165 3.79639 4.50684 4.18945 4.6875 4.54102C4.87305 4.8877 5.11475 5.16602 5.4126 5.37598C5.71533 5.58105 6.04492 5.68359 6.40137 5.68359ZM1.80176 13.5645C0.600586 13.5645 0 13.1738 0 12.3926C0 11.9141 0.146484 11.4038 0.439453 10.8618C0.732422 10.3198 1.15479 9.80957 1.70654 9.33105C2.26318 8.84766 2.93457 8.45459 3.7207 8.15186C4.51172 7.84912 5.40527 7.69775 6.40137 7.69775C6.9873 7.69775 7.53906 7.75635 8.05664 7.87354C8.57422 7.99072 9.05029 8.14941 9.48486 8.34961C9.06982 8.53516 8.76221 8.81348 8.56201 9.18457C8.25439 9.06738 7.91748 8.97461 7.55127 8.90625C7.18994 8.83789 6.80664 8.80371 6.40137 8.80371C5.56152 8.80371 4.81689 8.92578 4.16748 9.16992C3.51807 9.40918 2.97119 9.71191 2.52686 10.0781C2.0874 10.4443 1.75293 10.8252 1.52344 11.2207C1.29395 11.6113 1.1792 11.9556 1.1792 12.2534C1.1792 12.3315 1.19873 12.3853 1.23779 12.4146C1.28174 12.4438 1.35254 12.4585 1.4502 12.4585H8.15186V12.8247C8.15186 13.103 8.17627 13.3496 8.2251 13.5645H1.80176ZM9.15527 12.8467V10.21C9.15527 10 9.19922 9.82422 9.28711 9.68262C9.37988 9.53613 9.53369 9.4165 9.74854 9.32373C9.85596 9.27979 10.0098 9.22119 10.21 9.14795C10.4102 9.07471 10.6226 8.99902 10.8472 8.9209C11.0718 8.83789 11.2793 8.76465 11.4697 8.70117C11.665 8.63281 11.8066 8.58154 11.8945 8.54736C12.0264 8.49365 12.1582 8.4668 12.29 8.4668C12.4268 8.46191 12.5562 8.479 12.6782 8.51807C12.7808 8.55713 12.9297 8.61328 13.125 8.68652C13.3252 8.75488 13.54 8.83057 13.7695 8.91357C13.999 8.99658 14.2139 9.07471 14.4141 9.14795C14.6143 9.22119 14.7705 9.27979 14.8828 9.32373C15.0977 9.4165 15.249 9.53613 15.3369 9.68262C15.4297 9.82422 15.4761 10 15.4761 10.21V12.8467C15.4761 13.3154 15.3784 13.7061 15.1831 14.0186C14.9927 14.3311 14.6899 14.6289 14.2749 14.9121C13.8599 15.2002 13.3203 15.5396 12.6562 15.9302C12.5391 15.9985 12.417 16.0278 12.29 16.0181C12.168 16.0132 12.063 15.9839 11.9751 15.9302C11.311 15.5444 10.7715 15.2075 10.3564 14.9194C9.94141 14.6313 9.63623 14.3311 9.44092 14.0186C9.25049 13.7061 9.15527 13.3154 9.15527 12.8467ZM11.8726 14.2529C12.0435 14.2529 12.1704 14.1943 12.2534 14.0771L14.3848 11.1255C14.4189 11.0767 14.4434 11.0278 14.458 10.979C14.4775 10.9302 14.4873 10.8862 14.4873 10.8472C14.4873 10.7153 14.4409 10.6079 14.3481 10.5249C14.2554 10.437 14.1479 10.3931 14.0259 10.3931C13.8647 10.3931 13.7354 10.4614 13.6377 10.5981L11.8506 13.0737L10.9497 12.0996C10.9106 12.0557 10.8618 12.019 10.8032 11.9897C10.7446 11.9604 10.6763 11.9458 10.5981 11.9458C10.4712 11.9458 10.3638 11.9897 10.2759 12.0776C10.188 12.1655 10.144 12.2754 10.144 12.4072C10.144 12.4561 10.1538 12.5098 10.1733 12.5684C10.1929 12.6318 10.2222 12.688 10.2612 12.7368L11.5063 14.0918C11.5503 14.1455 11.6064 14.1846 11.6748 14.209C11.7432 14.2383 11.8091 14.2529 11.8726 14.2529Z" fill="#467A39"/>
</svg>
