<svg width="14" height="14" viewBox="0 0 14 14" fill="none" xmlns="http://www.w3.org/2000/svg">
<path d="M2.2998 13.4839C1.5332 13.4839 0.957031 13.2935 0.571289 12.9126C0.19043 12.5366 0 11.9727 0 11.2207V2.27051C0 1.51367 0.19043 0.947266 0.571289 0.571289C0.957031 0.19043 1.5332 0 2.2998 0H11.1841C11.9507 0 12.5244 0.19043 12.9053 0.571289C13.291 0.952148 13.4839 1.51855 13.4839 2.27051V11.2207C13.4839 11.9727 13.291 12.5366 12.9053 12.9126C12.5244 13.2935 11.9507 13.4839 11.1841 13.4839H2.2998ZM2.31445 12.3047H11.1694C11.5308 12.3047 11.8091 12.2095 12.0044 12.019C12.2046 11.8237 12.3047 11.5356 12.3047 11.1548V2.33643C12.3047 1.95557 12.2046 1.66748 12.0044 1.47217C11.8091 1.27686 11.5308 1.1792 11.1694 1.1792H2.31445C1.94824 1.1792 1.66748 1.27686 1.47217 1.47217C1.27686 1.66748 1.1792 1.95557 1.1792 2.33643V11.1548C1.1792 11.5356 1.27686 11.8237 1.47217 12.019C1.66748 12.2095 1.94824 12.3047 2.31445 12.3047ZM9.04541 8.54736C8.88428 8.54736 8.75244 8.49609 8.6499 8.39355C8.55225 8.29102 8.50342 8.15186 8.50342 7.97607V6.70898L8.61328 5.57373L7.56592 6.69434L4.86328 9.39697C4.75098 9.50928 4.61182 9.56543 4.4458 9.56543C4.28467 9.56543 4.15527 9.5166 4.05762 9.41895C3.95996 9.31641 3.91113 9.18213 3.91113 9.01611C3.91113 8.87451 3.96973 8.74512 4.08691 8.62793L6.78955 5.92529L7.9248 4.86328L6.84082 4.98047H5.50781C5.33203 4.98047 5.19043 4.93164 5.08301 4.83398C4.98047 4.73633 4.9292 4.60449 4.9292 4.43848C4.9292 4.27734 4.98047 4.14795 5.08301 4.05029C5.18555 3.95264 5.32227 3.90381 5.49316 3.90381H8.97217C9.15771 3.90381 9.3042 3.9502 9.41162 4.04297C9.52393 4.13574 9.58008 4.29199 9.58008 4.51172V7.96143C9.58008 8.13232 9.53125 8.27393 9.43359 8.38623C9.33594 8.49365 9.20654 8.54736 9.04541 8.54736Z" fill="#18709D"/>
</svg>
