<svg width="26" height="22" viewBox="0 0 26 22" fill="none" xmlns="http://www.w3.org/2000/svg">
<path d="M0 20.7422V0.9375C0 0.6875 0.0898438 0.46875 0.269531 0.28125C0.457031 0.09375 0.683594 0 0.949219 0C1.20703 0 1.42578 0.09375 1.60547 0.28125C1.79297 0.46875 1.88672 0.6875 1.88672 0.9375V19.4648C1.88672 19.6836 1.99609 19.793 2.21484 19.793H24.2461C24.5039 19.793 24.7266 19.8828 24.9141 20.0625C25.1016 20.25 25.1953 20.4727 25.1953 20.7305C25.1953 20.9961 25.1016 21.2188 24.9141 21.3984C24.7266 21.5781 24.5039 21.668 24.2461 21.668H0.9375C0.65625 21.668 0.429688 21.582 0.257812 21.4102C0.0859375 21.2461 0 21.0234 0 20.7422ZM1.73438 14.4258L0.304688 13.0078L5.54297 7.69922C5.80859 7.42578 6.07031 7.23047 6.32812 7.11328C6.58594 6.98828 6.85156 6.92578 7.125 6.92578C7.39844 6.92578 7.66406 6.98828 7.92188 7.11328C8.1875 7.23828 8.44922 7.43359 8.70703 7.69922L13.0195 12.1172C13.1289 12.2266 13.2344 12.2812 13.3359 12.2812C13.4453 12.2812 13.5547 12.2266 13.6641 12.1172L18.2812 7.44141L16.3477 5.50781C16.207 5.36719 16.1367 5.22266 16.1367 5.07422C16.1367 4.91797 16.1914 4.77734 16.3008 4.65234C16.418 4.52734 16.5781 4.4375 16.7812 4.38281L23.6367 2.66016C23.8086 2.61328 23.9688 2.625 24.1172 2.69531C24.2656 2.76562 24.375 2.875 24.4453 3.02344C24.5234 3.16406 24.5391 3.32422 24.4922 3.50391L22.7578 10.3711C22.7031 10.5742 22.6133 10.7344 22.4883 10.8516C22.3633 10.9609 22.2227 11.0156 22.0664 11.0156C21.918 11.0156 21.7734 10.9453 21.6328 10.8047L19.7109 8.87109L14.9297 13.6758C14.4062 14.1914 13.875 14.4492 13.3359 14.4492C13.0625 14.4492 12.793 14.3867 12.5273 14.2617C12.2617 14.1367 12.0039 13.9414 11.7539 13.6758L7.44141 9.25781C7.33984 9.14844 7.23438 9.09375 7.125 9.09375C7.01562 9.09375 6.91016 9.14844 6.80859 9.25781L1.73438 14.4258Z" fill="#18709D"/>
</svg>
