<svg width="32" height="22" viewBox="0 0 32 22" fill="none" xmlns="http://www.w3.org/2000/svg">
<path d="M14.7188 21.0703C13.7969 21.0703 13.1484 20.9375 12.7734 20.6719C12.4062 20.4141 12.2227 20.0273 12.2227 19.5117C12.2227 18.7539 12.4492 17.9609 12.9023 17.1328C13.3555 16.2969 14.0117 15.5156 14.8711 14.7891C15.7305 14.0547 16.7656 13.4609 17.9766 13.0078C19.1953 12.5469 20.5625 12.3164 22.0781 12.3164C23.6016 12.3164 24.9688 12.5469 26.1797 13.0078C27.3984 13.4609 28.4336 14.0547 29.2852 14.7891C30.1445 15.5156 30.8008 16.2969 31.2539 17.1328C31.7148 17.9609 31.9453 18.7539 31.9453 19.5117C31.9453 20.0273 31.7578 20.4141 31.3828 20.6719C31.0078 20.9375 30.3594 21.0703 29.4375 21.0703H14.7188ZM22.0898 10.2188C21.2461 10.2188 20.4688 9.99219 19.7578 9.53906C19.0469 9.07812 18.4766 8.46094 18.0469 7.6875C17.6172 6.90625 17.4023 6.03125 17.4023 5.0625C17.4023 4.10938 17.6172 3.25 18.0469 2.48438C18.4844 1.71875 19.0586 1.11328 19.7695 0.667969C20.4805 0.222656 21.2539 0 22.0898 0C22.9258 0 23.6992 0.21875 24.4102 0.65625C25.1211 1.09375 25.6914 1.69531 26.1211 2.46094C26.5508 3.21875 26.7656 4.07812 26.7656 5.03906C26.7656 6.01562 26.5508 6.89453 26.1211 7.67578C25.6914 8.45703 25.1211 9.07812 24.4102 9.53906C23.6992 9.99219 22.9258 10.2188 22.0898 10.2188ZM2.0625 21.0703C1.32031 21.0703 0.789062 20.9258 0.46875 20.6367C0.15625 20.3555 0 19.9492 0 19.418C0 18.6133 0.199219 17.793 0.597656 16.957C0.996094 16.1133 1.56641 15.3398 2.30859 14.6367C3.05859 13.9336 3.96094 13.3672 5.01562 12.9375C6.07812 12.5 7.26953 12.2812 8.58984 12.2812C9.68359 12.2812 10.6523 12.4258 11.4961 12.7148C12.3477 12.9961 13.1016 13.3555 13.7578 13.793C13.125 14.2852 12.5664 14.8555 12.082 15.5039C11.6055 16.1445 11.2305 16.8086 10.957 17.4961C10.6836 18.1836 10.5391 18.8398 10.5234 19.4648C10.5078 20.0898 10.6523 20.625 10.957 21.0703H2.0625ZM8.58984 10.4883C7.86328 10.4883 7.1875 10.2891 6.5625 9.89062C5.94531 9.49219 5.44922 8.95312 5.07422 8.27344C4.69922 7.59375 4.51172 6.83594 4.51172 6C4.51172 5.16406 4.69922 4.41406 5.07422 3.75C5.45703 3.08594 5.95703 2.5625 6.57422 2.17969C7.19922 1.78906 7.87109 1.59375 8.58984 1.59375C9.31641 1.59375 9.98828 1.78516 10.6055 2.16797C11.2305 2.54297 11.7305 3.0625 12.1055 3.72656C12.4805 4.38281 12.668 5.13281 12.668 5.97656C12.668 6.82031 12.4805 7.58594 12.1055 8.27344C11.7305 8.95312 11.2344 9.49219 10.6172 9.89062C10 10.2891 9.32422 10.4883 8.58984 10.4883Z" fill="#18709D"/>
</svg>
