<svg width="24" height="24" viewBox="0 0 24 24" fill="none" xmlns="http://www.w3.org/2000/svg">
<path d="M11.9531 23.9062C10.3047 23.9062 8.75781 23.5938 7.3125 22.9688C5.86719 22.3516 4.59766 21.4961 3.50391 20.4023C2.41016 19.3008 1.55078 18.0312 0.925781 16.5938C0.308594 15.1484 0 13.6016 0 11.9531C0 10.3047 0.308594 8.75781 0.925781 7.3125C1.55078 5.86719 2.41016 4.59766 3.50391 3.50391C4.59766 2.41016 5.86719 1.55469 7.3125 0.9375C8.75781 0.3125 10.3047 0 11.9531 0C13.6016 0 15.1484 0.3125 16.5938 0.9375C18.0391 1.55469 19.3086 2.41016 20.4023 3.50391C21.4961 4.59766 22.3516 5.86719 22.9688 7.3125C23.5938 8.75781 23.9062 10.3047 23.9062 11.9531C23.9062 13.6016 23.5938 15.1484 22.9688 16.5938C22.3516 18.0312 21.4961 19.3008 20.4023 20.4023C19.3086 21.4961 18.0391 22.3516 16.5938 22.9688C15.1484 23.5938 13.6016 23.9062 11.9531 23.9062ZM10.6406 17.6719C10.8438 17.6719 11.0273 17.625 11.1914 17.5312C11.3555 17.4375 11.5 17.2969 11.625 17.1094L17.1328 8.42578C17.2031 8.30859 17.2695 8.18359 17.332 8.05078C17.3945 7.91797 17.4258 7.78516 17.4258 7.65234C17.4258 7.37891 17.3242 7.16406 17.1211 7.00781C16.918 6.84375 16.6914 6.76172 16.4414 6.76172C16.0977 6.76172 15.8164 6.94141 15.5977 7.30078L10.5938 15.3398L8.21484 12.2695C8.06641 12.0742 7.92188 11.9414 7.78125 11.8711C7.64844 11.8008 7.49609 11.7656 7.32422 11.7656C7.05859 11.7656 6.83594 11.8633 6.65625 12.0586C6.47656 12.2461 6.38672 12.4727 6.38672 12.7383C6.38672 12.8711 6.41016 13.0039 6.45703 13.1367C6.51172 13.2617 6.58203 13.3828 6.66797 13.5L9.60938 17.1094C9.76562 17.3125 9.92578 17.457 10.0898 17.543C10.2539 17.6289 10.4375 17.6719 10.6406 17.6719Z" fill="#467A39"/>
</svg>
