<svg width="24" height="24" viewBox="0 0 24 24" fill="none" xmlns="http://www.w3.org/2000/svg">
<path d="M11.9531 23.9062C10.3047 23.9062 8.75781 23.5938 7.3125 22.9688C5.86719 22.3516 4.59766 21.4961 3.50391 20.4023C2.41016 19.3008 1.55078 18.0312 0.925781 16.5938C0.308594 15.1484 0 13.6016 0 11.9531C0 10.3047 0.308594 8.75781 0.925781 7.3125C1.55078 5.86719 2.41016 4.59766 3.50391 3.50391C4.59766 2.41016 5.86719 1.55469 7.3125 0.9375C8.75781 0.3125 10.3047 0 11.9531 0C13.6016 0 15.1484 0.3125 16.5938 0.9375C18.0391 1.55469 19.3086 2.41016 20.4023 3.50391C21.4961 4.59766 22.3516 5.86719 22.9688 7.3125C23.5938 8.75781 23.9062 10.3047 23.9062 11.9531C23.9062 13.6016 23.5938 15.1484 22.9688 16.5938C22.3516 18.0312 21.4961 19.3008 20.4023 20.4023C19.3086 21.4961 18.0391 22.3516 16.5938 22.9688C15.1484 23.5938 13.6016 23.9062 11.9531 23.9062ZM11.7188 14.4609C12.0234 14.4609 12.2617 14.3789 12.4336 14.2148C12.6055 14.043 12.6914 13.8359 12.6914 13.5938C12.6914 13.5703 12.6914 13.5469 12.6914 13.5234C12.6914 13.4922 12.6914 13.4688 12.6914 13.4531C12.6914 13.1094 12.793 12.8164 12.9961 12.5742C13.1992 12.3242 13.5117 12.0625 13.9336 11.7891C14.5195 11.4062 15 11.0039 15.375 10.582C15.7578 10.1602 15.9492 9.58594 15.9492 8.85938C15.9492 8.1875 15.7695 7.625 15.4102 7.17188C15.0508 6.71094 14.5781 6.36328 13.9922 6.12891C13.4141 5.89453 12.7812 5.77734 12.0938 5.77734C11.0469 5.77734 10.1953 5.98438 9.53906 6.39844C8.89062 6.8125 8.48047 7.30078 8.30859 7.86328C8.27734 7.95703 8.25 8.05469 8.22656 8.15625C8.21094 8.25781 8.20312 8.35938 8.20312 8.46094C8.20312 8.72656 8.29297 8.93359 8.47266 9.08203C8.65234 9.22266 8.84375 9.29297 9.04688 9.29297C9.25 9.29297 9.42188 9.25 9.5625 9.16406C9.70312 9.07031 9.82812 8.95312 9.9375 8.8125L10.1484 8.51953C10.2969 8.28516 10.4648 8.08594 10.6523 7.92188C10.8398 7.75781 11.0469 7.63281 11.2734 7.54688C11.5 7.46094 11.7461 7.41797 12.0117 7.41797C12.5586 7.41797 12.9961 7.55859 13.3242 7.83984C13.6602 8.12109 13.8281 8.49219 13.8281 8.95312C13.8281 9.36719 13.6992 9.70703 13.4414 9.97266C13.1836 10.2305 12.7891 10.543 12.2578 10.9102C11.8281 11.2148 11.4688 11.5469 11.1797 11.9062C10.8906 12.2656 10.7461 12.7461 10.7461 13.3477C10.7461 13.3711 10.7461 13.3984 10.7461 13.4297C10.7461 13.4531 10.7461 13.4766 10.7461 13.5C10.7461 14.1406 11.0703 14.4609 11.7188 14.4609ZM11.6836 18.0586C12.0352 18.0586 12.3398 17.9375 12.5977 17.6953C12.8633 17.4531 12.9961 17.1562 12.9961 16.8047C12.9961 16.4531 12.8672 16.1562 12.6094 15.9141C12.3516 15.6641 12.043 15.5391 11.6836 15.5391C11.332 15.5391 11.0273 15.6641 10.7695 15.9141C10.5117 16.1641 10.3828 16.4609 10.3828 16.8047C10.3828 17.1562 10.5117 17.4531 10.7695 17.6953C11.0352 17.9375 11.3398 18.0586 11.6836 18.0586Z" fill="#EDB95E"/>
</svg>
