<svg width="24" height="24" viewBox="0 0 24 24" fill="none" xmlns="http://www.w3.org/2000/svg">
<path d="M11.9531 23.9062C10.3047 23.9062 8.75781 23.5938 7.3125 22.9688C5.86719 22.3516 4.59766 21.4961 3.50391 20.4023C2.41016 19.3008 1.55078 18.0312 0.925781 16.5938C0.308594 15.1484 0 13.6016 0 11.9531C0 10.3047 0.308594 8.75781 0.925781 7.3125C1.55078 5.86719 2.41016 4.59766 3.50391 3.50391C4.59766 2.41016 5.86719 1.55469 7.3125 0.9375C8.75781 0.3125 10.3047 0 11.9531 0C13.6016 0 15.1484 0.3125 16.5938 0.9375C18.0391 1.55469 19.3086 2.41016 20.4023 3.50391C21.4961 4.59766 22.3516 5.86719 22.9688 7.3125C23.5938 8.75781 23.9062 10.3047 23.9062 11.9531C23.9062 13.6016 23.5938 15.1484 22.9688 16.5938C22.3516 18.0312 21.4961 19.3008 20.4023 20.4023C19.3086 21.4961 18.0391 22.3516 16.5938 22.9688C15.1484 23.5938 13.6016 23.9062 11.9531 23.9062ZM8.01562 16.875C8.29688 16.875 8.53516 16.7812 8.73047 16.5938L11.9648 13.3359L15.2109 16.5938C15.3906 16.7812 15.6211 16.875 15.9023 16.875C16.1758 16.875 16.4062 16.7812 16.5938 16.5938C16.7812 16.3984 16.875 16.168 16.875 15.9023C16.875 15.6133 16.7812 15.3828 16.5938 15.2109L13.3359 11.9648L16.6055 8.70703C16.793 8.51172 16.8867 8.28125 16.8867 8.01562C16.8867 7.75 16.793 7.52344 16.6055 7.33594C16.418 7.14844 16.1914 7.05469 15.9258 7.05469C15.668 7.05469 15.4453 7.14844 15.2578 7.33594L11.9648 10.6055L8.69531 7.34766C8.5 7.16797 8.27344 7.07812 8.01562 7.07812C7.75 7.07812 7.52344 7.17188 7.33594 7.35938C7.14844 7.53906 7.05469 7.76562 7.05469 8.03906C7.05469 8.29688 7.14844 8.52344 7.33594 8.71875L10.5938 11.9648L7.33594 15.2227C7.14844 15.4102 7.05469 15.6367 7.05469 15.9023C7.05469 16.168 7.14844 16.3984 7.33594 16.5938C7.52344 16.7812 7.75 16.875 8.01562 16.875Z" fill="#E7000B"/>
</svg>
